<?xml version="1.0" standalone="no"?>
<!DOCTYPE svg PUBLIC "-//W3C//DTD SVG 20010904//EN"
 "http://www.w3.org/TR/2001/REC-SVG-20010904/DTD/svg10.dtd">
<svg version="1.0" xmlns="http://www.w3.org/2000/svg"
 width="1920.000000pt" height="720.000000pt" viewBox="0 0 1920.000000 720.000000"
 preserveAspectRatio="xMidYMid meet">

<g transform="translate(0.000000,720.000000) scale(0.100000,-0.100000)"
fill="#000000" stroke="none">
<path d="M3617 6423 c-26 -2 -45 -8 -43 -12 3 -5 -5 -6 -17 -4 -30 6 -317 -45
-334 -59 -8 -6 -16 -8 -19 -6 -4 5 -72 -14 -237 -66 -21 -7 -36 -14 -33 -16 2
-3 -6 -6 -19 -6 -13 -1 -47 -13 -77 -26 -29 -14 -68 -31 -85 -38 -18 -7 -30
-16 -27 -21 3 -5 -2 -6 -10 -3 -8 3 -40 -9 -72 -27 -32 -18 -86 -46 -119 -64
-103 -53 -225 -136 -218 -148 3 -6 1 -7 -5 -3 -13 8 -74 -33 -66 -45 2 -4 -1
-11 -7 -15 -8 -4 -9 -3 -5 4 12 20 -4 13 -44 -19 -22 -18 -37 -35 -35 -39 3
-4 -3 -14 -13 -21 -15 -13 -16 -12 -3 4 7 9 9 17 5 17 -13 0 -194 -160 -194
-172 0 -5 10 -12 22 -17 21 -8 21 -8 -3 -14 -13 -4 -28 -2 -34 4 -7 7 -4 8 10
3 17 -6 18 -5 7 7 -10 11 -18 7 -49 -23 -33 -33 -35 -39 -22 -55 13 -17 13
-17 -4 -4 -21 16 -11 24 -120 -100 -37 -42 -67 -81 -67 -88 0 -6 -3 -11 -7
-11 -5 0 -19 -17 -33 -37 -27 -40 -47 -67 -67 -88 -7 -8 -13 -17 -13 -21 0 -4
-11 -22 -26 -41 -14 -18 -22 -33 -18 -33 4 0 0 -6 -9 -12 -16 -13 -28 -33
-109 -188 -22 -41 -44 -80 -50 -87 -12 -15 -1 -36 14 -27 7 4 8 2 4 -4 -4 -6
-13 -9 -20 -6 -10 4 -23 -17 -42 -68 -16 -40 -28 -79 -28 -85 1 -7 -1 -11 -5
-8 -7 4 -46 -96 -53 -135 -2 -8 -5 -17 -9 -20 -8 -7 -45 -143 -63 -230 -9 -41
-20 -91 -26 -110 -5 -19 -9 -44 -9 -55 0 -11 -5 -42 -10 -70 -13 -69 -13 -98
0 -89 6 3 3 -6 -7 -22 -17 -26 -19 -52 -19 -304 0 -252 2 -278 19 -304 10 -16
13 -25 7 -22 -13 9 -13 -20 0 -89 5 -27 10 -59 10 -70 0 -11 4 -36 9 -55 6
-19 17 -69 26 -110 18 -87 55 -223 63 -230 4 -3 7 -12 9 -20 7 -39 46 -139 53
-135 4 3 6 -1 5 -8 0 -6 12 -45 28 -85 19 -51 32 -72 42 -68 7 3 16 0 20 -6 4
-6 3 -8 -4 -4 -15 9 -26 -12 -14 -27 6 -7 28 -46 50 -87 81 -155 93 -175 109
-187 9 -7 13 -13 9 -13 -4 0 4 -15 18 -33 15 -19 26 -38 26 -43 0 -5 12 -22
28 -39 15 -16 38 -47 52 -67 14 -21 28 -38 33 -38 4 0 7 -5 7 -11 0 -7 30 -46
67 -88 109 -124 99 -116 120 -100 17 13 17 13 4 -4 -13 -16 -10 -22 20 -53 18
-19 39 -32 46 -30 7 3 10 -1 7 -8 -3 -7 35 -48 88 -94 87 -77 128 -104 97 -64
-13 15 -12 16 3 3 10 -7 16 -17 13 -21 -2 -4 13 -21 35 -39 40 -32 56 -39 44
-19 -4 7 -3 8 5 4 6 -4 9 -11 7 -15 -8 -12 53 -53 66 -45 6 4 8 3 5 -3 -7 -12
115 -95 218 -148 33 -18 87 -46 119 -64 32 -18 64 -30 72 -27 8 3 13 2 10 -3
-11 -18 401 -170 469 -173 11 -1 25 -5 31 -10 6 -4 91 -22 190 -40 174 -30
187 -31 484 -32 248 0 322 3 395 17 50 9 106 19 125 22 39 5 59 9 139 27 42 9
50 14 35 20 -14 6 -10 7 11 3 31 -5 267 63 260 75 -2 4 8 7 23 7 15 0 47 9 72
20 25 11 73 33 107 48 36 16 60 32 56 38 -3 6 -1 7 5 3 14 -9 103 35 95 47 -3
6 -1 7 5 3 9 -5 98 36 112 53 3 3 19 13 35 21 49 24 117 72 111 78 -3 2 -12
-1 -21 -8 -9 -7 -18 -10 -21 -7 -3 3 9 13 26 22 18 9 29 12 26 6 -10 -16 7
-13 30 5 10 8 13 12 5 8 -9 -5 -12 -3 -7 4 4 7 14 12 22 12 9 0 12 5 8 12 -4
6 -3 8 4 5 16 -10 44 4 38 19 -3 9 0 11 11 7 10 -4 14 -2 10 4 -3 5 9 17 27
25 38 19 200 156 202 172 1 6 2 17 3 24 0 6 6 12 12 12 8 0 8 -5 -1 -15 -7 -8
-9 -15 -4 -15 18 0 105 100 98 111 -4 7 -3 9 4 6 19 -13 187 185 178 210 -3 8
0 13 8 11 20 -5 67 57 60 79 -4 13 -3 15 4 4 7 -10 11 -10 17 -1 4 7 1 17 -6
22 -11 8 -10 9 3 4 12 -4 27 12 58 60 22 36 38 70 34 76 -4 6 -3 8 3 5 5 -3 9
13 9 38 -1 24 4 49 9 54 7 7 10 2 10 -14 0 -12 -3 -21 -7 -18 -5 2 -7 -7 -6
-21 1 -15 3 -26 4 -26 1 0 15 21 30 47 37 63 66 125 54 118 -6 -3 -7 1 -4 9 3
9 10 14 14 11 5 -3 25 29 45 71 35 76 36 77 20 111 -9 19 -14 37 -11 40 3 4 7
0 7 -8 1 -8 5 2 9 21 7 30 7 29 4 -12 -2 -27 1 -48 7 -48 15 0 28 42 23 76 -4
24 -3 25 5 9 8 -18 10 -17 16 13 4 17 12 32 17 32 5 0 7 4 4 9 -3 5 0 21 8 36
8 15 12 34 9 42 -3 8 -1 18 5 22 22 14 100 327 88 357 -3 9 -1 12 4 9 6 -4 10
10 11 32 0 21 2 47 4 58 22 121 28 212 28 395 0 183 -6 274 -28 395 -2 11 -4
37 -4 58 -1 21 -5 36 -10 33 -5 -4 -7 2 -4 12 9 35 -71 352 -88 352 -5 0 -8
11 -7 24 1 13 -5 39 -14 58 -10 18 -20 47 -24 63 -6 27 -7 28 -15 10 -8 -16
-8 -14 -5 9 5 34 -8 76 -23 76 -6 0 -9 -21 -7 -47 3 -42 3 -43 -4 -13 -4 19
-8 29 -9 21 0 -8 -4 -12 -7 -8 -3 3 2 21 11 40 16 34 15 35 -20 111 -20 42
-40 74 -45 71 -4 -3 -11 2 -14 11 -3 8 -2 12 4 9 12 -7 -17 55 -54 118 -15 26
-29 47 -30 47 -1 0 -3 -11 -4 -26 -1 -14 1 -23 6 -21 4 3 7 -6 7 -18 0 -16 -3
-21 -10 -14 -5 5 -10 30 -9 54 0 25 -4 41 -9 38 -6 -3 -7 -1 -3 5 4 6 -12 40
-34 76 -31 48 -46 64 -58 60 -13 -5 -14 -4 -3 4 7 5 10 15 6 22 -6 9 -10 9
-17 -1 -7 -11 -8 -9 -4 4 7 22 -40 84 -60 79 -8 -2 -11 3 -8 11 8 23 -176 244
-195 233 -5 -4 -13 -1 -17 5 -4 8 -3 9 4 5 24 -14 11 8 -25 45 -36 37 -69 56
-43 24 9 -10 9 -15 1 -15 -6 0 -12 6 -12 13 -1 6 -2 17 -3 23 -2 18 -165 153
-217 179 -53 27 -63 30 -54 15 3 -5 2 -10 -4 -10 -5 0 -12 4 -15 9 -7 11 22
23 35 15 5 -3 9 -2 9 2 0 11 -34 33 -52 34 -9 0 -20 5 -24 12 -5 7 -2 9 7 4 8
-4 5 0 -5 8 -23 18 -40 21 -30 5 3 -6 -8 -3 -26 6 -17 9 -29 19 -26 22 3 3 12
0 21 -7 9 -7 18 -10 21 -7 6 5 -29 29 -113 78 -22 13 -62 36 -88 51 -26 15
-52 25 -58 21 -5 -3 -7 -2 -4 4 8 12 -81 56 -95 47 -6 -4 -8 -3 -5 3 4 6 -20
22 -56 38 -34 15 -82 37 -107 48 -25 11 -57 20 -72 20 -15 0 -25 3 -23 7 7 12
-229 80 -260 75 -22 -4 -25 -3 -11 3 15 6 -3 13 -70 27 -49 10 -100 20 -114
21 -14 2 -63 11 -110 20 -63 12 -155 17 -360 18 -151 1 -296 1 -323 -1z m506
-10 c-7 -2 -21 -2 -30 0 -10 3 -4 5 12 5 17 0 24 -2 18 -5z m-745 -50 c-10 -2
-18 -8 -18 -12 0 -5 -12 -6 -27 -3 l-28 6 30 7 c34 8 71 9 43 2z m1069 1 c-3
-3 -12 -4 -19 -1 -8 3 -5 6 6 6 11 1 17 -2 13 -5z m-1138 -37 c-17 -5 -34 -6
-37 -3 -3 3 3 6 13 6 18 0 18 1 -1 14 -17 13 -15 13 19 3 l37 -12 -31 -8z
m1188 27 c-3 -3 -12 -4 -19 -1 -8 3 -5 6 6 6 11 1 17 -2 13 -5z m-1069 -11
c-10 -2 -26 -2 -35 0 -10 3 -2 5 17 5 19 0 27 -2 18 -5z m1319 -59 c-3 -3 -12
-4 -19 -1 -8 3 -5 6 6 6 11 1 17 -2 13 -5z m-1658 -20 c10 -9 -45 -3 -59 6
-11 7 -5 8 20 4 19 -4 37 -8 39 -10z m1725 7 c19 -7 19 -8 -2 -13 -12 -4 -20
-2 -17 2 3 5 -1 11 -7 13 -7 3 -8 5 -3 6 6 0 19 -4 29 -8z m-1774 -16 c19 -7
28 -14 19 -14 -9 -1 -32 6 -50 14 -43 18 -16 18 31 0z m1727 9 c-3 -3 -12 -4
-19 -1 -8 3 -5 6 6 6 11 1 17 -2 13 -5z m-1784 -21 c-7 -2 -19 -2 -25 0 -7 3
-2 5 12 5 14 0 19 -2 13 -5z m-133 -33 c-19 -11 -42 -19 -50 -20 -19 0 50 37
70 38 8 1 -1 -7 -20 -18z m20 -15 c-10 -12 -10 -15 0 -15 8 0 11 -2 8 -5 -3
-3 -13 -3 -22 1 -15 6 -15 7 1 20 24 18 28 17 13 -1z m2141 0 c19 -8 27 -14
19 -14 -14 0 -72 28 -59 29 4 0 22 -7 40 -15z m-2236 -15 c-3 -5 -12 -10 -18
-10 -7 0 -6 4 3 10 19 12 23 12 15 0z m2219 -11 c-8 -13 -21 -11 -27 5 -4 10
0 12 14 9 10 -3 16 -9 13 -14z m85 2 c10 -7 7 -9 -12 -8 -14 1 -23 5 -20 10 6
9 15 9 32 -2z m-2414 -51 c-3 -5 -14 -10 -23 -9 -14 0 -13 2 3 9 27 11 27 11
20 0z m2505 -30 c-8 -5 -19 -10 -25 -10 -5 0 -3 5 5 10 8 5 20 10 25 10 6 0 3
-5 -5 -10z m-2660 -72 c10 -3 8 -6 -8 -10 -12 -4 -20 -2 -16 3 3 5 0 9 -6 9
-6 0 -8 5 -4 11 4 7 9 7 13 2 3 -6 13 -12 21 -15z m2862 -26 c-4 -11 -7 -12
-10 -4 -2 7 -9 12 -16 12 -7 0 -13 6 -13 14 0 11 5 12 23 4 15 -7 20 -16 16
-26z m-55 22 c-3 -3 -12 -4 -19 -1 -8 3 -5 6 6 6 11 1 17 -2 13 -5z m-2949
-58 c-24 -18 -23 -29 1 -21 11 3 22 2 24 -2 3 -5 -12 -8 -34 -8 -21 0 -39 1
-39 3 0 7 45 41 55 41 6 0 2 -6 -7 -13z m3047 -16 c11 0 27 -5 35 -10 11 -7 5
-8 -20 -4 -19 4 -41 13 -48 20 -7 9 -8 10 0 4 7 -6 21 -10 33 -10z m125 -71
c0 -6 -4 -7 -10 -4 -5 3 -10 11 -10 16 0 6 5 7 10 4 6 -3 10 -11 10 -16z
m-3464 -133 c0 -14 -6 -22 -13 -19 -9 4 -9 9 0 24 15 24 15 24 13 -5z m3674
-21 c0 -3 -9 0 -20 7 -11 7 -20 18 -20 25 0 8 8 5 20 -7 11 -11 20 -22 20 -25z
m-20 -21 c0 -2 -7 -4 -15 -4 -8 0 -15 4 -15 10 0 5 7 7 15 4 8 -4 15 -8 15
-10z m-3656 -3 c4 -5 -3 -7 -14 -4 -23 6 -26 13 -6 13 8 0 17 -4 20 -9z m-158
-109 c0 -10 -8 -18 -18 -18 -22 0 -22 1 -2 20 19 20 20 20 20 -2z m-1 -41 c3
-5 2 -12 -3 -15 -5 -3 -9 1 -9 9 0 17 3 19 12 6z m-80 -74 c0 -19 -5 -23 -36
-23 -34 -1 -35 0 -17 18 22 22 29 23 22 3 -4 -8 -2 -15 4 -15 5 0 12 9 15 20
7 27 12 25 12 -3z m4183 -27 c-7 -10 -14 -17 -17 -15 -4 4 18 35 25 35 2 0 -1
-9 -8 -20z m-4287 -54 c-9 -11 -9 -15 1 -19 9 -4 9 -6 1 -6 -6 -1 -15 4 -18 9
-8 12 2 30 17 30 7 0 7 -5 -1 -14z m4313 -15 c-2 -3 -12 3 -22 13 -16 17 -16
18 5 5 12 -7 20 -15 17 -18z m45 -2 c-7 -4 -17 -5 -22 -2 -5 3 -3 9 4 14 7 4
17 5 22 2 5 -3 3 -9 -4 -14z m31 -71 c0 -6 -6 -5 -15 2 -8 7 -15 14 -15 16 0
2 7 1 15 -2 8 -4 15 -11 15 -16z m-4443 -7 c0 -11 -7 -17 -14 -14 -9 4 -9 8 0
19 16 17 16 17 14 -5z m4496 -15 c14 -21 15 -25 1 -30 -8 -3 -12 -1 -9 4 3 5
1 19 -5 30 -15 28 -6 25 13 -4z m-4532 -20 c-6 -7 -8 -22 -5 -32 5 -15 4 -16
-6 -8 -13 13 -5 54 12 54 7 0 7 -5 -1 -14z m32 -55 c-9 -12 -23 18 -16 35 6
17 8 17 13 -6 4 -14 5 -27 3 -29z m-69 13 c3 -8 2 -12 -4 -9 -10 6 -13 -4 -11
-40 1 -18 0 -17 -9 3 -7 16 -6 29 3 42 14 24 13 24 21 4z m4567 -7 c-10 -9
-11 -8 -5 6 3 10 9 15 12 12 3 -3 0 -11 -7 -18z m90 -97 l-7 -35 -6 35 c-3 19
-3 41 0 49 10 27 21 -13 13 -49z m-4693 15 c-3 -3 -9 2 -12 12 -6 14 -5 15 5
6 7 -7 10 -15 7 -18z m4719 -37 c-3 -7 -5 -2 -5 12 0 14 2 19 5 13 2 -7 2 -19
0 -25z m-4795 -40 c-7 -7 -12 -21 -13 -32 0 -13 -3 -16 -6 -8 -6 15 17 65 26
57 2 -3 -1 -11 -7 -17z m-55 -150 c0 -36 -2 -45 -6 -28 -7 23 -8 24 -18 6 -9
-16 -11 -16 -16 -2 -4 9 -1 15 6 13 7 -1 11 9 10 26 -1 18 2 25 9 21 8 -5 9
-1 5 10 -4 9 -3 15 1 12 5 -3 9 -29 9 -58z m-42 -58 c-3 -5 -11 -10 -16 -10
-6 0 -7 5 -4 10 3 6 11 10 16 10 6 0 7 -4 4 -10z m-55 -115 c0 -5 -5 -3 -10 5
-5 8 -10 20 -10 25 0 6 5 3 10 -5 5 -8 10 -19 10 -25z m-28 -47 c-6 -6 -7 0
-4 19 5 21 7 23 10 9 2 -10 0 -22 -6 -28z m35 10 c-3 -8 -6 -5 -6 6 -1 11 2
17 5 13 3 -3 4 -12 1 -19z m-94 -150 c-4 -22 -4 -22 12 2 12 18 14 19 10 5 -4
-11 -9 -29 -12 -40 -4 -16 -3 -17 6 -5 9 13 11 13 11 -2 0 -27 -19 -22 -30 8
-12 32 -13 54 -1 54 5 0 7 -10 4 -22z m967 7 c-10 -12 -7 -13 22 -4 20 5 400
9 973 9 779 -1 951 -3 1005 -15 80 -18 127 -35 162 -58 22 -15 31 -16 49 -7
15 8 19 9 15 1 -4 -6 0 -14 8 -17 9 -3 16 -11 16 -17 0 -5 -9 -2 -20 8 -11 10
-22 16 -25 13 -6 -5 85 -83 96 -83 4 0 11 -4 16 -9 5 -5 3 -6 -4 -2 -21 12
-15 -4 16 -43 15 -20 41 -67 57 -106 l29 -70 3 -716 2 -716 -25 -25 c-18 -19
-22 -28 -13 -31 17 -7 -2001 -2 -2027 5 -11 3 -37 13 -57 22 -21 9 -40 16 -43
16 -13 0 -112 70 -149 104 -30 28 -42 34 -49 24 -6 -9 -7 -8 -3 5 8 26 -5 46
-14 22 -6 -18 -7 -17 -12 3 -4 12 -2 20 3 16 15 -9 10 6 -10 34 -10 15 -22 37
-26 50 -5 19 -9 21 -21 11 -8 -6 -15 -21 -15 -33 -1 -16 -2 -17 -6 -4 -2 10 3
28 11 40 18 25 21 42 6 33 -5 -3 -11 0 -11 7 -1 7 -2 29 -4 48 -1 19 -3 347
-4 729 -1 610 0 696 14 711 19 21 20 36 0 20 -8 -7 -15 -9 -15 -4 0 5 12 16
28 26 35 21 37 21 22 3z m3250 -6 c0 -14 -17 -10 -23 5 -4 10 -1 13 9 9 7 -3
14 -9 14 -14z m144 -5 l26 -27 2 -896 c3 -781 1 -900 -12 -923 -8 -16 -21 -28
-28 -28 -7 0 -10 -4 -7 -10 8 -12 -64 18 -91 39 -12 9 -31 23 -43 31 -12 8
-84 61 -159 117 -75 57 -145 103 -154 103 -10 0 -17 6 -15 13 1 6 -4 11 -10
10 -7 -2 -13 1 -13 6 0 4 -21 25 -46 44 -34 27 -54 35 -75 33 -16 -2 -26 1
-23 6 3 5 13 7 21 4 8 -4 11 -1 7 5 -3 6 -14 9 -24 6 -21 -5 -48 9 -37 20 5 4
12 1 17 -7 6 -9 10 -10 10 -3 0 10 -123 103 -137 103 -3 0 1 -8 8 -17 13 -16
12 -17 -3 -4 -10 7 -18 19 -18 27 0 7 -13 21 -30 31 -16 9 -30 22 -31 28 0 5
-7 -3 -14 -20 -16 -33 -18 -24 -9 25 5 23 9 28 16 18 7 -9 7 -7 2 7 -12 27
-14 655 -3 655 5 0 9 6 9 13 0 7 29 35 66 61 36 27 62 51 59 54 -3 3 -18 -4
-34 -16 -25 -18 -30 -19 -35 -6 -3 9 -2 12 5 9 6 -4 18 0 27 8 21 18 55 30 47
17 -10 -16 5 -11 33 11 15 11 68 50 117 85 83 61 129 97 98 80 -7 -4 -13 -2
-13 4 0 7 7 9 16 6 10 -4 37 10 72 36 32 24 74 54 94 68 20 13 34 28 32 32 -3
4 3 8 14 8 22 0 55 33 45 45 -5 4 -2 5 5 1 7 -4 39 13 80 43 37 28 76 51 87
51 17 0 17 2 5 10 -13 8 -13 10 1 10 9 0 28 -12 43 -26z m-124 -14 c0 -5 -8
-10 -17 -10 -15 0 -16 2 -3 10 19 12 20 12 20 0z m170 0 c0 -5 -4 -10 -10 -10
-5 0 -10 5 -10 10 0 6 5 10 10 10 6 0 10 -4 10 -10z m-1283 -6 c-3 -3 -12 -4
-19 -1 -8 3 -5 6 6 6 11 1 17 -2 13 -5z m1303 -14 c0 -13 -6 -20 -17 -19 -11
0 -13 3 -5 6 6 2 12 11 12 19 0 8 2 14 5 14 3 0 5 -9 5 -20z m-305 -30 c3 -5
1 -10 -4 -10 -6 0 -11 5 -11 10 0 6 2 10 4 10 3 0 8 -4 11 -10z m61 -2 c-9 -5
-23 -5 -32 0 -12 6 -7 9 16 9 23 0 28 -3 16 -9z m1154 -82 c0 -52 -6 -43 -13
18 -3 30 -1 43 4 35 5 -8 9 -32 9 -53z m-23 12 c-3 -8 -6 -5 -6 6 -1 11 2 17
5 13 3 -3 4 -12 1 -19z m-1247 -15 c0 -1 -10 -7 -21 -14 -13 -6 -19 -7 -15 -1
3 6 0 12 -6 15 -7 2 -1 4 14 3 16 0 28 -2 28 -3z m-72 -37 c-7 -8 -15 -12 -17
-11 -5 6 10 25 20 25 5 0 4 -6 -3 -14z m-32 -28 c4 -7 3 -8 -4 -4 -7 4 -12 2
-12 -4 0 -6 -5 -8 -11 -4 -8 4 -7 9 2 15 18 11 17 11 25 -3z m-611 -23 c0 -22
-1 -23 -12 -9 -7 9 -10 21 -7 25 10 17 19 9 19 -16z m561 10 c10 -8 14 -15 9
-15 -6 0 -16 5 -23 12 -6 6 -15 9 -19 5 -3 -4 2 -14 13 -23 18 -14 18 -15 -3
-4 -23 11 -28 21 -16 33 10 10 17 9 39 -8z m-3989 -37 c-3 -7 -5 -2 -5 12 0
14 2 19 5 13 2 -7 2 -19 0 -25z m3450 10 c-3 -8 -6 -5 -6 6 -1 11 2 17 5 13 3
-3 4 -12 1 -19z m-3470 -50 c-3 -8 -6 -5 -6 6 -1 11 2 17 5 13 3 -3 4 -12 1
-19z m3937 -3 c-10 -8 -23 -14 -29 -14 -5 0 -1 6 9 14 11 8 24 15 30 15 5 0 1
-7 -10 -15z m1563 -72 c-3 -10 -5 -4 -5 12 0 17 2 24 5 18 2 -7 2 -21 0 -30z
m-1674 -2 c22 12 22 12 2 -8 -19 -19 -36 -13 -34 12 0 6 3 4 6 -2 3 -10 10
-10 26 -2z m-63 -35 c0 -2 -7 -7 -16 -10 -8 -3 -12 -2 -9 4 6 10 25 14 25 6z
m1738 -31 c-3 -3 -9 2 -12 12 -6 14 -5 15 5 6 7 -7 10 -15 7 -18z m9 -77 c-3
-8 -6 -5 -6 6 -1 11 2 17 5 13 3 -3 4 -12 1 -19z m-1897 -18 c0 -5 -8 -10 -17
-10 -15 0 -16 2 -3 10 19 12 20 12 20 0z m-30 -30 c0 -5 -2 -10 -4 -10 -3 0
-8 5 -11 10 -3 6 -1 10 4 10 6 0 11 -4 11 -10z m1959 -32 c1 -5 -3 -8 -9 -8
-5 0 -10 12 -9 28 0 24 1 25 9 7 5 -11 9 -23 9 -27z m-5592 -80 c-3 -7 -5 -2
-5 12 0 14 2 19 5 13 2 -7 2 -19 0 -25z m0 -520 c-3 -7 -5 -2 -5 12 0 14 2 19
5 13 2 -7 2 -19 0 -25z m5592 -55 c0 -5 -4 -17 -9 -28 -8 -18 -9 -17 -9 8 -1
15 4 27 9 27 6 0 10 -3 9 -7z m-1934 -63 c3 -6 -1 -7 -9 -4 -18 7 -21 14 -7
14 6 0 13 -4 16 -10z m1902 -32 c-3 -8 -6 -5 -6 6 -1 11 2 17 5 13 3 -3 4 -12
1 -19z m-1842 -47 c-6 -5 -25 10 -25 20 0 5 6 4 14 -3 8 -7 12 -15 11 -17z
m74 -12 c35 -28 22 -32 -14 -3 -16 13 -25 24 -20 24 6 -1 21 -10 34 -21z
m1752 -22 c-10 -9 -11 -8 -5 6 3 10 9 15 12 12 3 -3 0 -11 -7 -18z m-1726 -45
c-6 -6 -45 28 -45 39 0 5 11 -1 25 -13 14 -12 23 -24 20 -26z m1732 -29 c-3
-10 -5 -4 -5 12 0 17 2 24 5 18 2 -7 2 -21 0 -30z m-5480 -15 c-3 -7 -5 -2 -5
12 0 14 2 19 5 13 2 -7 2 -19 0 -25z m20 10 c-3 -8 -6 -5 -6 6 -1 11 2 17 5
13 3 -3 4 -12 1 -19z m970 -30 c-3 -8 -6 -5 -6 6 -1 11 2 17 5 13 3 -3 4 -12
1 -19z m2887 0 c-5 -8 -1 -9 12 -4 14 5 16 4 7 -5 -13 -13 -37 -3 -28 12 4 5
8 9 11 9 3 0 2 -5 -2 -12z m-3897 -30 c-3 -8 -6 -5 -6 6 -1 11 2 17 5 13 3 -3
4 -12 1 -19z m20 -50 c-3 -7 -5 -2 -5 12 0 14 2 19 5 13 2 -7 2 -19 0 -25z
m3998 -26 c-3 -3 -11 0 -18 7 -9 10 -8 11 6 5 10 -3 15 -9 12 -12z m70 -23
c11 -17 -1 -21 -15 -4 -8 9 -8 15 -2 15 6 0 14 -5 17 -11z m1335 -96 c-11 -17
-11 -17 -6 0 3 10 7 35 8 55 l1 37 4 -37 c2 -21 -1 -46 -7 -55z m-4320 47 c0
-5 -2 -10 -4 -10 -3 0 -8 5 -11 10 -3 6 -1 10 4 10 6 0 11 -4 11 -10z m4307
-22 c-3 -8 -6 -5 -6 6 -1 11 2 17 5 13 3 -3 4 -12 1 -19z m-4191 -43 c16 -15
21 -25 13 -25 -8 0 -22 12 -32 25 -23 32 -15 32 19 0z m-1096 -42 c0 -16 -2
-16 -11 -3 -9 12 -10 11 -6 -5 3 -11 8 -29 12 -40 4 -14 2 -13 -10 5 -16 24
-16 24 -12 3 3 -13 1 -23 -4 -23 -12 0 -11 22 1 54 11 30 30 35 30 9z m1207
-28 c0 -8 -4 -12 -9 -9 -4 3 -8 9 -8 15 0 5 4 9 8 9 5 0 9 -7 9 -15z m-61 -24
c-4 -6 -13 -11 -19 -10 -9 0 -9 2 0 5 7 3 9 13 6 22 -5 13 -3 14 7 5 7 -6 9
-16 6 -22z m3079 19 c3 -5 1 -10 -4 -10 -6 0 -11 5 -11 10 0 6 2 10 4 10 3 0
8 -4 11 -10z m-3040 -20 c3 -5 1 -10 -4 -10 -6 0 -11 5 -11 10 0 6 2 10 4 10
3 0 8 -4 11 -10z m74 6 c-2 -2 -17 -6 -34 -10 -22 -5 -26 -4 -15 4 14 9 59 15
49 6z m-1221 -162 c-3 -14 -5 -12 -10 9 -3 19 -2 25 4 19 6 -6 8 -18 6 -28z
m29 4 c-3 -8 -6 -5 -6 6 -1 11 2 17 5 13 3 -3 4 -12 1 -19z m-16 -45 c-12 -20
-14 -14 -5 12 4 9 9 14 11 11 3 -2 0 -13 -6 -23z m64 -93 c3 -5 2 -10 -4 -10
-5 0 -13 5 -16 10 -3 6 -2 10 4 10 5 0 13 -4 16 -10z m42 -32 c-3 -8 -6 -5 -6
6 -1 11 2 17 5 13 3 -3 4 -12 1 -19z m-5 -44 c3 -13 0 -21 -8 -21 -7 0 -12 11
-11 26 1 16 -3 25 -10 24 -7 -2 -10 4 -6 13 5 13 7 12 18 -3 6 -10 14 -27 17
-39z m59 -128 c5 -6 9 -14 9 -20 0 -5 -7 -1 -15 10 -8 10 -14 28 -14 39 l1 20
5 -20 c3 -11 9 -24 14 -29z m4770 -114 c-12 -22 -19 6 -13 48 l6 35 7 -35 c4
-19 4 -41 0 -48z m26 46 c-3 -7 -5 -2 -5 12 0 14 2 19 5 13 2 -7 2 -19 0 -25z
m-4726 -31 c-10 -9 -11 -8 -5 6 3 10 9 15 12 12 3 -3 0 -11 -7 -18z m27 -37
c-1 -17 -5 -27 -9 -23 -7 7 -2 53 6 53 2 0 3 -14 3 -30z m84 -46 c-4 -22 -6
-24 -14 -10 -9 16 -3 36 11 36 5 0 6 -12 3 -26z m4506 1 c-3 -3 -9 2 -12 12
-6 14 -5 15 5 6 7 -7 10 -15 7 -18z m-4542 -1 c-4 -9 -1 -23 5 -30 8 -9 8 -14
1 -14 -13 0 -26 36 -17 50 10 16 18 12 11 -6z m4537 -50 c-19 -29 -28 -32 -13
-4 6 11 8 25 5 30 -3 5 1 7 9 4 14 -5 13 -9 -1 -30z m-4496 -14 c1 -16 -1 -17
-12 -7 -11 10 -8 19 10 27 1 0 1 -9 2 -20z m4443 -9 c0 -5 -7 -12 -16 -15 -14
-5 -15 -4 -4 9 14 17 20 19 20 6z m-4388 -68 c-10 -4 -10 -8 -1 -19 8 -9 8
-14 1 -14 -15 0 -25 18 -17 30 3 6 12 10 18 9 8 0 8 -2 -1 -6z m4363 -14 c-3
-4 -12 -6 -20 -3 -8 4 -13 10 -10 15 3 4 12 6 20 3 8 -4 13 -10 10 -15z m-46
8 c-2 -1 -13 -9 -24 -17 -19 -14 -19 -14 -6 3 7 9 18 17 24 17 6 0 8 -1 6 -3z
m-29 -72 c14 -19 14 -19 -2 -6 -10 7 -18 18 -18 24 0 6 1 8 3 6 1 -2 9 -13 17
-24z m-4189 -19 c-4 -18 -6 -18 -9 -3 -2 9 -8 17 -14 17 -5 0 -8 -7 -4 -15 8
-21 -7 -19 -20 3 -10 15 -7 17 21 18 28 0 31 -2 26 -20z m84 -65 c3 -5 2 -12
-3 -15 -5 -3 -9 1 -9 9 0 17 3 19 12 6z m1 -53 c0 -22 2 -22 -25 1 l-22 19 24
-2 c14 0 23 -7 23 -18z m159 -108 c-3 -5 -14 -10 -23 -9 -14 0 -13 2 3 9 27
11 27 11 20 0z m3655 -4 c0 -2 -7 -6 -15 -10 -8 -3 -15 -1 -15 4 0 6 7 10 15
10 8 0 15 -2 15 -4z m-3654 -42 c2 -23 1 -24 -11 -7 -10 13 -10 20 -2 25 7 4
12 8 12 8 0 0 1 -11 1 -26z m3655 -3 c-12 -12 -21 -16 -21 -10 0 12 32 40 38
34 2 -2 -6 -13 -17 -24z m-188 -129 c-10 -10 -20 -17 -22 -16 -6 5 20 34 30
34 5 0 1 -8 -8 -18z m-3150 -65 c-2 -4 -13 -5 -24 -2 -23 8 -26 -10 -3 -19 9
-4 14 -9 11 -12 -6 -6 -56 26 -57 36 0 3 18 5 39 5 22 0 37 -3 34 -8z m3057 3
c-8 -5 -24 -10 -35 -10 -12 0 -27 -6 -35 -12 -12 -11 -12 -10 -1 4 11 15 25
19 76 26 6 1 3 -3 -5 -8z m-95 -87 c-17 -9 -30 -10 -47 -3 -23 10 -22 10 3 7
18 -3 31 3 40 14 10 14 15 15 21 6 4 -7 -2 -17 -17 -24z m-2845 -1 c-8 -3 -18
-9 -21 -15 -4 -5 -9 -5 -13 2 -4 6 -2 11 4 11 6 0 9 4 6 9 -4 5 4 7 16 3 16
-4 18 -7 8 -10z m2660 -72 c8 -5 11 -10 5 -10 -5 0 -17 5 -25 10 -8 5 -10 10
-5 10 6 0 17 -5 25 -10z m-2506 -29 c4 -5 -3 -7 -14 -4 -23 6 -26 13 -6 13 8
0 17 -4 20 -9z m2330 -50 c3 -5 -3 -11 -13 -14 -14 -3 -18 -1 -14 9 6 16 19
18 27 5z m96 5 c0 -2 -7 -7 -16 -10 -8 -3 -12 -2 -9 4 6 10 25 14 25 6z
m-2315 -16 c3 -6 -1 -7 -9 -4 -18 7 -21 14 -7 14 6 0 13 -4 16 -10z m82 -6
c-3 -3 -12 -4 -19 -1 -8 3 -5 6 6 6 11 1 17 -2 13 -5z m2154 -9 c-18 -8 -36
-15 -40 -15 -13 1 45 29 59 29 8 0 0 -6 -19 -14z m-2161 -15 c47 -26 25 -26
-25 0 -22 11 -33 20 -25 20 8 -1 31 -9 50 -20z m158 -47 c2 -7 -4 -13 -15 -13
-15 0 -16 2 -3 11 11 8 6 9 -23 5 -23 -3 -35 -1 -31 5 8 14 67 7 72 -8z m47 7
c-28 -12 -37 -12 -30 0 3 6 16 10 28 9 21 0 21 -1 2 -9z m1755 -22 c-12 -5
-25 -6 -28 -3 -3 3 0 5 7 5 7 0 10 4 7 9 -4 5 4 7 16 3 l22 -5 -24 -9z m-1721
8 c-2 -2 -20 -6 -39 -10 -25 -4 -31 -3 -20 4 14 9 69 15 59 6z m1678 -2 c-3
-3 -12 -4 -19 -1 -8 3 -5 6 6 6 11 1 17 -2 13 -5z m-20 -20 c-3 -3 -12 -4 -19
-1 -8 3 -5 6 6 6 11 1 17 -2 13 -5z m-1427 -44 c20 -6 21 -8 5 -8 -11 0 -31 4
-45 8 -20 6 -21 8 -5 8 11 0 31 -4 45 -8z m1236 -6 c10 -8 12 -12 4 -8 -8 4
-30 11 -50 15 -35 7 -35 7 -4 8 16 0 39 -6 50 -15z m-1128 -11 c-10 -2 -26 -2
-35 0 -10 3 -2 5 17 5 19 0 27 -2 18 -5z m1074 0 c-13 -3 -19 -9 -16 -15 4 -7
2 -8 -5 -4 -17 11 -3 26 22 25 22 -2 22 -2 -1 -6z m-1159 -10 c-7 -2 -19 -2
-25 0 -7 3 -2 5 12 5 14 0 19 -2 13 -5z m44 -9 c-3 -3 -12 -4 -19 -1 -8 3 -5
6 6 6 11 1 17 -2 13 -5z m1060 0 c-3 -3 -12 -4 -19 -1 -8 3 -5 6 6 6 11 1 17
-2 13 -5z m-494 -51 c-7 -2 -21 -2 -30 0 -10 3 -4 5 12 5 17 0 24 -2 18 -5z
m170 0 c-7 -2 -21 -2 -30 0 -10 3 -4 5 12 5 17 0 24 -2 18 -5z"/>
<path d="M7720 4722 c0 -78 12 -150 21 -127 5 14 7 8 6 -20 0 -46 49 -138 71
-130 7 3 10 0 7 -6 -7 -10 19 -37 61 -65 24 -17 65 -8 42 8 -9 7 -8 8 5 4 10
-3 24 -6 30 -7 7 0 1 -5 -13 -11 -25 -10 -25 -11 20 -32 44 -21 57 -21 658
-24 355 -2 612 -7 612 -13 0 -4 -11 -16 -26 -25 -15 -11 -23 -23 -19 -32 6
-16 -21 -52 -39 -52 -6 0 0 9 14 20 14 10 22 21 19 24 -3 3 -17 -6 -32 -20
-22 -21 -26 -29 -16 -40 7 -9 8 -14 1 -14 -6 0 -12 6 -14 12 -3 7 -38 -22 -82
-66 -61 -62 -74 -81 -65 -92 7 -9 8 -14 1 -14 -6 0 -12 5 -14 12 -2 6 -75 -59
-161 -146 -126 -127 -155 -161 -146 -172 7 -9 8 -14 1 -14 -6 0 -12 5 -14 12
-3 7 -39 -23 -81 -66 -61 -62 -75 -82 -66 -92 7 -9 8 -14 1 -14 -6 0 -12 5
-14 12 -2 6 -75 -59 -161 -146 -126 -127 -155 -161 -146 -172 7 -9 8 -14 1
-14 -6 0 -12 5 -14 12 -3 7 -39 -23 -81 -66 -61 -62 -75 -82 -66 -92 7 -9 8
-14 1 -14 -6 0 -12 5 -14 12 -2 6 -42 -27 -88 -73 l-83 -85 2 -74 c1 -41 7
-78 13 -81 6 -4 8 -11 4 -17 -7 -11 13 -74 26 -83 6 -3 9 -9 9 -13 -2 -17 2
-24 39 -66 34 -38 42 -43 51 -30 9 13 10 13 5 -2 -7 -22 48 -56 123 -76 48
-13 193 -16 999 -19 l943 -3 -6 57 c-7 53 -17 109 -30 170 -12 52 -115 170
-137 157 -7 -4 -8 -3 -4 4 4 7 -10 19 -36 32 -24 11 -44 16 -46 11 -2 -6 -10
-7 -18 -4 -7 3 -12 9 -9 13 11 17 -138 21 -682 18 -317 -2 -561 1 -560 6 1 5
23 29 50 54 26 24 47 51 47 58 0 7 5 16 12 20 7 5 8 2 3 -7 -4 -8 8 2 28 20
21 19 37 42 37 50 0 8 3 11 7 7 9 -9 73 54 73 73 0 8 3 11 7 7 9 -9 73 54 73
73 0 8 3 11 7 7 9 -9 73 54 73 73 0 8 3 11 7 7 9 -9 73 54 73 73 0 8 3 11 7 7
9 -9 73 54 73 73 0 8 3 11 7 7 9 -9 73 54 73 73 0 8 3 11 7 7 9 -9 73 54 73
73 0 8 3 11 7 7 9 -9 73 54 73 73 0 8 3 11 7 7 9 -9 73 54 73 73 0 8 3 11 7 7
9 -9 73 54 73 73 0 8 3 11 7 7 9 -9 73 54 73 73 0 8 3 11 7 7 9 -9 73 54 73
73 0 8 3 11 7 7 9 -9 73 54 73 73 0 8 3 11 7 7 9 -9 73 54 73 73 0 8 3 11 7 7
9 -8 73 54 73 71 0 7 6 12 12 11 7 -2 14 8 16 22 6 38 -9 171 -18 165 -5 -3
-11 1 -13 7 -4 10 -6 10 -6 1 -1 -7 -6 -13 -12 -13 -8 0 -8 5 1 15 7 8 16 12
21 9 15 -9 10 15 -11 57 -24 47 -108 139 -127 139 -7 0 -22 9 -33 20 -15 15
-28 19 -48 14 -21 -4 -24 -3 -12 5 13 9 12 11 -5 12 -11 1 -33 4 -50 6 -16 3
-450 7 -962 9 l-933 4 0 -48z m117 32 c-3 -3 -12 -4 -19 -1 -8 3 -5 6 6 6 11
1 17 -2 13 -5z m1608 -14 c-4 -7 -282 -9 -808 -8 l-802 3 805 5 c443 3 806 6
808 8 2 1 0 -2 -3 -8z m190 0 c-3 -5 -14 -10 -23 -9 -14 0 -13 2 3 9 27 11 27
11 20 0z m-82 -17 c-7 -2 -19 -2 -25 0 -7 3 -2 5 12 5 14 0 19 -2 13 -5z
m-1806 -25 c-3 -8 -6 -5 -6 6 -1 11 2 17 5 13 3 -3 4 -12 1 -19z m1963 7 c0
-8 -2 -15 -4 -15 -2 0 -6 7 -10 15 -3 8 -1 15 4 15 6 0 10 -7 10 -15z m-1973
-57 c-3 -7 -5 -2 -5 12 0 14 2 19 5 13 2 -7 2 -19 0 -25z m2028 12 c3 -6 -1
-7 -9 -4 -18 7 -21 14 -7 14 6 0 13 -4 16 -10z m108 -91 c5 -3 2 -9 -5 -12 -9
-3 -14 3 -15 15 -1 11 1 16 5 12 4 -5 11 -12 15 -15z m-2049 -35 c9 -24 2 -26
-12 -4 -7 11 -8 20 -3 20 5 0 12 -7 15 -16z m2047 -11 c-12 -20 -14 -14 -5 12
4 9 9 14 11 11 3 -2 0 -13 -6 -23z m-2072 -26 c0 -21 -1 -21 -9 -2 -12 28 -12
37 0 30 6 -3 10 -16 9 -28z m28 -22 c-4 -8 -12 -15 -19 -14 -10 0 -10 2 0 6 6
2 12 12 12 21 0 8 3 13 6 9 4 -3 4 -13 1 -22z m78 -93 c-3 -3 -11 0 -18 7 -9
10 -8 11 6 5 10 -3 15 -9 12 -12z m90 -22 c-3 -5 -12 -10 -18 -10 -7 0 -6 4 3
10 19 12 23 12 15 0z m1279 -55 c-4 -8 -11 -12 -16 -9 -6 4 -5 10 3 15 19 12
19 11 13 -6z m607 -4 c-8 -5 -10 -14 -6 -22 6 -11 5 -11 -5 -2 -14 12 -6 33
13 33 8 0 7 -3 -2 -9z m-22 -35 c9 -10 8 -15 -2 -19 -8 -3 -13 3 -13 14 0 23
0 23 15 5z m-614 -16 c13 -6 15 -9 5 -9 -8 0 -22 4 -30 9 -18 12 -2 12 25 0z
m556 -29 c-8 -5 -10 -14 -6 -22 6 -11 5 -11 -5 -2 -14 12 -6 33 13 33 8 0 7
-3 -2 -9z m-611 -46 c-7 -9 -15 -13 -17 -11 -6 6 20 36 26 30 2 -2 -2 -10 -9
-19z m589 11 c9 -10 8 -15 -2 -19 -8 -3 -13 3 -13 14 0 23 0 23 15 5z m-675
-61 c-26 -18 -30 -11 -7 12 10 10 20 15 22 10 1 -4 -5 -14 -15 -22z m617 16
c-8 -5 -10 -14 -6 -22 6 -11 5 -11 -5 -2 -14 12 -6 33 13 33 8 0 7 -3 -2 -9z
m-606 -40 c-3 -6 -11 -11 -16 -11 -5 0 -4 6 3 14 14 16 24 13 13 -3z m584 5
c9 -10 8 -15 -2 -19 -8 -3 -13 3 -13 14 0 23 0 23 15 5z m-674 -56 c-10 -11
-23 -20 -29 -20 -6 0 0 9 14 20 32 25 38 25 15 0z m616 11 c-8 -5 -10 -14 -6
-22 6 -11 5 -11 -5 -2 -14 12 -6 33 13 33 8 0 7 -3 -2 -9z m-611 -46 c-7 -9
-15 -13 -17 -11 -6 6 20 36 26 30 2 -2 -2 -10 -9 -19z m589 11 c9 -10 8 -15
-2 -19 -8 -3 -13 3 -13 14 0 23 0 23 15 5z m-674 -56 c-10 -11 -21 -18 -23
-15 -3 3 3 12 14 20 27 20 30 18 9 -5z m616 11 c-8 -5 -10 -14 -6 -22 6 -11 5
-11 -5 -2 -14 12 -6 33 13 33 8 0 7 -3 -2 -9z m-606 -40 c-3 -6 -11 -11 -16
-11 -5 0 -4 6 3 14 14 16 24 13 13 -3z m584 5 c9 -10 8 -15 -2 -19 -8 -3 -13
3 -13 14 0 23 0 23 15 5z m-674 -56 c-10 -11 -23 -20 -28 -20 -6 0 1 10 14 23
29 28 40 25 14 -3z m616 11 c-8 -5 -10 -14 -6 -22 6 -11 5 -11 -5 -2 -14 12
-6 33 13 33 8 0 7 -3 -2 -9z m-606 -40 c-3 -6 -11 -11 -16 -11 -5 0 -4 6 3 14
14 16 24 13 13 -3z m584 5 c9 -10 8 -15 -2 -19 -8 -3 -13 3 -13 14 0 23 0 23
15 5z m-674 -56 c-10 -11 -21 -18 -23 -15 -3 3 3 12 14 20 27 20 30 18 9 -5z
m616 11 c-8 -5 -10 -14 -6 -22 6 -11 5 -11 -5 -2 -14 12 -6 33 13 33 8 0 7 -3
-2 -9z m-606 -40 c-3 -6 -11 -11 -16 -11 -5 0 -4 6 3 14 14 16 24 13 13 -3z
m584 5 c9 -10 8 -15 -2 -19 -8 -3 -13 3 -13 14 0 23 0 23 15 5z m-674 -56
c-10 -11 -23 -20 -29 -20 -6 0 0 9 14 20 32 25 38 25 15 0z m616 11 c-8 -5
-10 -14 -6 -22 6 -11 5 -11 -5 -2 -14 12 -6 33 13 33 8 0 7 -3 -2 -9z m-611
-46 c-7 -9 -15 -13 -17 -11 -6 6 20 36 26 30 2 -2 -2 -10 -9 -19z m589 11 c9
-10 8 -15 -2 -19 -8 -3 -13 3 -13 14 0 23 0 23 15 5z m-675 -61 c-26 -18 -30
-11 -7 12 10 10 20 15 22 10 1 -4 -5 -14 -15 -22z m617 16 c-8 -5 -10 -14 -6
-22 6 -11 5 -11 -5 -2 -14 12 -6 33 13 33 8 0 7 -3 -2 -9z m-606 -40 c-3 -6
-11 -11 -16 -11 -5 0 -4 6 3 14 14 16 24 13 13 -3z m584 5 c9 -10 8 -15 -2
-19 -8 -3 -13 3 -13 14 0 23 0 23 15 5z m-674 -56 c-10 -11 -23 -20 -29 -20
-6 0 0 9 14 20 32 25 38 25 15 0z m616 11 c-8 -5 -10 -14 -6 -22 6 -11 5 -11
-5 -2 -14 12 -6 33 13 33 8 0 7 -3 -2 -9z m-611 -46 c-7 -9 -15 -13 -17 -11
-6 6 20 36 26 30 2 -2 -2 -10 -9 -19z m589 11 c9 -10 8 -15 -2 -19 -8 -3 -13
3 -13 14 0 23 0 23 15 5z m-674 -56 c-10 -11 -21 -18 -23 -15 -3 3 3 12 14 20
27 20 30 18 9 -5z m616 11 c-8 -5 -10 -14 -6 -22 6 -11 5 -11 -5 -2 -14 12 -6
33 13 33 8 0 7 -3 -2 -9z m-606 -40 c-3 -6 -11 -11 -16 -11 -5 0 -4 6 3 14 14
16 24 13 13 -3z m584 5 c9 -10 8 -15 -2 -19 -8 -3 -13 3 -13 14 0 23 0 23 15
5z m-674 -56 c-10 -11 -23 -20 -28 -20 -6 0 1 10 14 23 29 28 40 25 14 -3z
m616 11 c-8 -5 -10 -14 -6 -22 6 -11 5 -11 -5 -2 -14 12 -6 33 13 33 8 0 7 -3
-2 -9z m-606 -40 c-3 -6 -11 -11 -16 -11 -5 0 -4 6 3 14 14 16 24 13 13 -3z
m584 5 c9 -10 8 -15 -2 -19 -8 -3 -13 3 -13 14 0 23 0 23 15 5z m-674 -56
c-10 -11 -21 -18 -23 -15 -3 3 3 12 14 20 27 20 30 18 9 -5z m616 11 c-8 -5
-10 -14 -6 -22 6 -11 5 -11 -5 -2 -14 12 -6 33 13 33 8 0 7 -3 -2 -9z m-606
-40 c-3 -6 -11 -11 -16 -11 -5 0 -4 6 3 14 14 16 24 13 13 -3z m584 5 c9 -10
8 -15 -2 -19 -8 -3 -13 3 -13 14 0 23 0 23 15 5z m-674 -56 c-10 -11 -23 -20
-29 -20 -6 0 0 9 14 20 32 25 38 25 15 0z m616 11 c-8 -5 -10 -14 -6 -22 6
-11 5 -11 -5 -2 -14 12 -6 33 13 33 8 0 7 -3 -2 -9z m-611 -46 c-7 -9 -15 -13
-17 -11 -6 6 20 36 26 30 2 -2 -2 -10 -9 -19z m589 11 c9 -10 8 -15 -2 -19 -8
-3 -13 3 -13 14 0 23 0 23 15 5z m-675 -61 c-26 -18 -30 -11 -7 12 10 10 20
15 22 10 1 -4 -5 -14 -15 -22z m616 15 c-13 -9 -13 -11 0 -20 9 -6 10 -10 3
-10 -6 0 -15 5 -18 10 -8 13 3 30 18 30 7 0 6 -4 -3 -10z m-605 -39 c-3 -6
-11 -11 -16 -11 -5 0 -4 6 3 14 14 16 24 13 13 -3z m584 5 c9 -10 8 -15 -2
-19 -8 -3 -13 3 -13 14 0 23 0 23 15 5z m-674 -56 c-10 -11 -23 -20 -29 -20
-6 0 0 9 14 20 32 25 38 25 15 0z m615 10 c-13 -9 -13 -11 0 -20 9 -6 10 -10
3 -10 -6 0 -15 5 -18 10 -8 13 3 30 18 30 7 0 6 -4 -3 -10z m-610 -45 c-7 -9
-15 -13 -17 -11 -6 6 20 36 26 30 2 -2 -2 -10 -9 -19z m589 11 c9 -10 8 -15
-2 -19 -8 -3 -13 3 -13 14 0 23 0 23 15 5z m-674 -56 c-10 -11 -21 -18 -23
-15 -3 3 3 12 14 20 27 20 30 18 9 -5z m618 14 c-7 -3 -9 -13 -6 -22 5 -13 3
-14 -7 -5 -14 13 -5 33 13 32 9 0 9 -2 0 -5z m-608 -43 c-3 -6 -11 -11 -16
-11 -5 0 -4 6 3 14 14 16 24 13 13 -3z m593 -5 c-2 -1 -12 -8 -23 -16 -18 -14
-19 -14 -7 2 8 10 10 23 6 30 -6 9 -3 9 9 -1 10 -8 16 -14 15 -15z m-683 -46
c-10 -11 -23 -20 -28 -20 -6 0 1 10 14 23 29 28 40 25 14 -3z m615 -2 c0 -6
-6 -5 -15 2 -8 7 -15 14 -15 16 0 2 7 1 15 -2 8 -4 15 -11 15 -16z m-605 -27
c-3 -6 -11 -11 -16 -11 -5 0 -4 6 3 14 14 16 24 13 13 -3z m1900 -71 c-3 -5
-12 -10 -18 -10 -7 0 -6 4 3 10 19 12 23 12 15 0z m119 -97 c-2 -20 -7 -39 -9
-42 -3 -2 -3 11 -1 30 5 49 6 49 11 49 2 0 2 -17 -1 -37z m29 2 c4 -8 3 -16
-1 -19 -4 -3 -9 4 -9 15 -2 23 3 25 10 4z m22 -55 c3 -5 2 -10 -4 -10 -5 0
-13 5 -16 10 -3 6 -2 10 4 10 5 0 13 -4 16 -10z m-2078 -22 c-3 -8 -6 -5 -6 6
-1 11 2 17 5 13 3 -3 4 -12 1 -19z m9 -38 c0 -12 -4 -16 -9 -11 -5 5 -6 14 -3
20 10 15 12 14 12 -9z m145 -87 c12 -16 12 -17 -1 -7 -8 6 -22 14 -30 17 -13
5 -12 6 1 6 9 1 23 -7 30 -16z m-22 -22 c7 -5 12 -13 10 -18 -2 -5 -12 -1 -21
9 -19 19 -13 24 11 9z m2000 -51 c0 -9 -4 -8 -9 5 -5 11 -9 27 -9 35 0 9 4 8
9 -5 5 -11 9 -27 9 -35z m-1962 18 c-3 -8 -6 -5 -6 6 -1 11 2 17 5 13 3 -3 4
-12 1 -19z m103 -12 c0 -2 -7 -7 -16 -10 -8 -3 -12 -2 -9 4 6 10 25 14 25 6z
m100 0 c0 -2 -11 -6 -25 -8 -13 -3 -22 -1 -19 3 5 9 44 13 44 5z"/>
<path d="M11035 4763 c-105 -7 -193 -25 -295 -60 -119 -40 -160 -59 -160 -73
0 -6 -9 -10 -20 -10 -56 0 -342 -231 -324 -262 4 -7 4 -10 -1 -6 -17 16 -34
-13 -28 -48 4 -22 2 -34 -6 -34 -7 0 -9 10 -6 28 6 26 6 26 -9 7 -8 -11 -20
-25 -25 -32 -6 -6 -8 -22 -6 -34 3 -13 -1 -26 -7 -30 -9 -6 -8 -11 1 -23 8
-10 9 -16 3 -16 -17 0 -24 37 -12 62 11 21 10 21 -9 -2 -31 -37 -121 -221
-114 -233 3 -5 0 -13 -8 -17 -7 -5 -13 -25 -13 -44 0 -20 -3 -31 -7 -25 -15
25 -42 -178 -41 -316 0 -157 11 -232 32 -227 10 2 11 0 2 -11 -14 -17 -5 -80
11 -70 5 3 7 1 3 -5 -3 -6 -1 -23 6 -39 6 -15 12 -35 13 -44 4 -34 68 -157
130 -249 66 -98 175 -212 280 -292 52 -40 119 -81 135 -83 3 0 17 -9 32 -18
37 -25 229 -89 251 -83 10 2 14 0 11 -6 -5 -7 2 -9 20 -4 17 4 25 3 22 -3 -18
-28 335 -26 459 3 160 38 352 124 440 198 52 43 69 59 58 54 -20 -10 -8 26 13
37 17 9 18 9 5 -6 -10 -13 -10 -17 -1 -17 12 0 153 141 146 147 -1 2 12 19 30
39 19 19 34 42 34 50 0 8 4 14 8 14 13 0 33 50 26 62 -4 6 -3 8 3 5 5 -3 17 6
25 21 20 33 76 172 82 204 3 13 10 39 16 58 5 19 8 49 5 65 -5 23 -4 26 4 15
9 -12 11 -7 11 20 0 19 3 73 6 120 7 97 -4 253 -16 245 -4 -3 -6 3 -3 14 2 10
-1 38 -8 62 -7 24 -14 53 -16 63 -2 11 -6 22 -10 25 -3 3 -3 -4 0 -17 3 -13 1
-20 -5 -16 -5 4 -7 19 -4 35 6 31 -35 134 -49 121 -5 -4 -5 -1 -1 5 8 15 -24
74 -36 67 -4 -3 -5 2 -2 10 6 15 -53 113 -82 137 -13 10 -17 10 -25 -2 -5 -8
-9 -9 -9 -3 0 5 5 15 10 20 22 22 -238 258 -327 296 -16 7 -36 18 -45 26 -10
8 -24 12 -33 8 -9 -3 -14 -2 -10 3 7 12 -153 72 -230 86 -137 24 -251 34 -330
28z m-7 -20 c-10 -2 -28 -2 -40 0 -13 2 -5 4 17 4 22 1 32 -1 23 -4z m-95 -10
c-7 -2 -19 -2 -25 0 -7 3 -2 5 12 5 14 0 19 -2 13 -5z m264 1 c-3 -3 -12 -4
-19 -1 -8 3 -5 6 6 6 11 1 17 -2 13 -5z m-184 -11 c-7 -2 -19 -2 -25 0 -7 3
-2 5 12 5 14 0 19 -2 13 -5z m-220 -30 c-7 -2 -19 -2 -25 0 -7 3 -2 5 12 5 14
0 19 -2 13 -5z m-68 -13 c-3 -5 -12 -10 -18 -10 -7 0 -6 4 3 10 19 12 23 12
15 0z m752 4 c-3 -3 -12 -4 -19 -1 -8 3 -5 6 6 6 11 1 17 -2 13 -5z m-767 -29
c23 -9 28 -14 15 -14 -11 0 -31 6 -45 14 -31 18 -16 18 30 0z m73 8 c-7 -2
-21 -2 -30 0 -10 3 -4 5 12 5 17 0 24 -2 18 -5z m777 -3 c8 -5 11 -10 5 -10
-5 0 -17 5 -25 10 -8 5 -10 10 -5 10 6 0 17 -5 25 -10z m-1003 -79 c-1 -12 -6
-17 -15 -14 -10 5 -11 8 -2 13 7 5 9 13 5 20 -5 8 -4 11 3 6 6 -3 10 -15 9
-25z m1163 -2 c12 -8 10 -9 -9 -4 -17 5 -22 4 -16 -5 5 -9 4 -11 -4 -6 -6 4
-9 12 -6 17 8 12 16 11 35 -2z m-1256 -33 c-10 -8 -21 -12 -23 -10 -3 2 4 11
15 18 10 8 21 12 23 10 3 -2 -4 -11 -15 -18z m-55 -45 c-13 -11 -27 -20 -31
-21 -5 0 -8 -7 -8 -15 0 -8 -2 -15 -4 -15 -2 0 -13 -3 -23 -7 -10 -4 4 14 31
40 27 26 51 45 54 42 3 -2 -6 -13 -19 -24z m66 19 c-3 -5 -11 -10 -16 -10 -6
0 -7 5 -4 10 3 6 11 10 16 10 6 0 7 -4 4 -10z m1329 -6 c5 -14 4 -15 -9 -4
-17 14 -19 20 -6 20 5 0 12 -7 15 -16z m-9 -21 c18 -10 17 -11 -6 -10 -17 2
-26 8 -27 22 0 11 2 15 6 9 4 -6 16 -16 27 -21z m50 -3 c3 -5 2 -10 -4 -10 -5
0 -13 5 -16 10 -3 6 -2 10 4 10 5 0 13 -4 16 -10z m-1465 -65 c-7 -8 -17 -15
-22 -15 -6 0 -5 7 2 15 7 8 17 15 22 15 6 0 5 -7 -2 -15z m1530 -5 c0 -5 -4
-10 -10 -10 -5 0 -10 5 -10 10 0 6 5 10 10 10 6 0 10 -4 10 -10z m-1588 -7
c-6 -2 -9 -10 -6 -15 4 -7 2 -8 -5 -4 -13 9 -5 26 12 25 9 0 8 -2 -1 -6z
m1622 -46 c-10 -27 -21 -20 -21 13 0 26 2 29 14 17 8 -7 11 -21 7 -30z m-1655
10 c-2 -1 -13 -9 -24 -17 -19 -14 -19 -14 -6 3 7 9 18 17 24 17 6 0 8 -1 6 -3z
m1705 -49 c-3 -5 -12 -2 -20 6 -20 21 -17 28 5 14 11 -7 17 -16 15 -20z
m-1694 12 c0 -5 -8 -10 -17 -10 -15 0 -16 2 -3 10 19 12 20 12 20 0z m585 -30
c3 -5 -1 -10 -10 -10 -9 0 -13 5 -10 10 3 6 8 10 10 10 2 0 7 -4 10 -10z m92
-7 c13 -3 31 -2 40 2 40 17 318 -9 306 -28 -4 -6 3 -8 15 -5 12 4 20 2 16 -3
-3 -5 3 -9 13 -9 10 0 33 -9 51 -20 19 -12 31 -16 27 -10 -3 6 0 7 9 4 9 -3
14 -10 11 -14 -6 -10 24 -22 37 -14 5 3 1 12 -9 21 -17 13 -17 13 3 4 12 -6
25 -7 30 -3 5 4 1 -2 -8 -13 -16 -19 -15 -22 23 -53 23 -20 44 -30 52 -26 6 4
9 4 5 -1 -4 -4 9 -28 29 -52 31 -38 39 -42 48 -30 7 9 16 12 24 8 9 -6 7 -10
-8 -14 -24 -6 -29 -27 -7 -27 8 0 16 -10 18 -22 2 -12 9 -23 16 -26 7 -2 13 2
11 9 -1 8 -1 23 0 34 2 17 4 16 17 -8 11 -19 12 -32 5 -45 -8 -12 -10 -13 -11
-3 0 8 -2 12 -5 9 -8 -8 6 -59 14 -54 4 3 7 -3 8 -12 0 -9 10 -42 22 -72 12
-30 23 -75 26 -100 2 -25 7 -67 10 -95 4 -27 2 -79 -4 -114 -7 -45 -7 -68 0
-77 6 -7 9 -23 6 -36 -4 -20 -4 -20 -6 5 -2 56 -26 18 -33 -53 0 -8 -4 -17 -7
-20 -4 -3 -12 -17 -18 -31 -9 -20 -9 -30 0 -39 9 -10 9 -11 0 -6 -16 9 -16 1
-2 -26 8 -15 8 -23 -1 -32 -8 -8 -10 -7 -5 4 3 9 -2 24 -10 35 -9 11 -15 14
-13 6 2 -7 -9 -27 -24 -43 -19 -20 -26 -38 -24 -56 2 -15 1 -19 -1 -9 -4 16
-14 10 -58 -34 -30 -29 -51 -57 -49 -61 3 -4 -2 -5 -10 -2 -9 3 -16 1 -16 -5
0 -6 -14 -18 -30 -26 -28 -15 -33 -42 -6 -32 7 3 13 -1 13 -9 0 -12 -4 -12
-23 1 -21 13 -28 12 -86 -15 -100 -47 -180 -63 -303 -64 -153 0 -286 40 -396
119 -47 33 -85 50 -45 20 11 -8 17 -17 14 -20 -2 -3 -15 7 -29 22 -13 14 -17
23 -9 18 8 -4 -7 16 -35 46 -27 29 -51 56 -52 58 -2 2 -12 -4 -23 -14 -24 -21
-27 -14 -4 9 14 15 13 21 -15 65 -17 26 -31 53 -31 60 0 7 -5 9 -12 5 -7 -4
-8 -3 -4 5 4 6 1 23 -8 36 -9 13 -16 32 -16 42 -1 17 -1 17 -11 -1 -8 -12 -8
-20 -1 -25 7 -4 6 -16 -3 -36 -14 -31 -17 -25 -19 32 -1 17 2 29 7 26 4 -2 7
0 7 6 0 5 3 17 7 27 4 10 2 15 -4 11 -5 -3 -10 8 -10 26 -1 18 -5 79 -8 137
-6 91 -4 118 14 193 13 48 29 99 36 114 8 15 12 30 9 35 -3 4 -1 8 5 8 5 0 13
10 17 22 3 12 10 26 15 32 31 37 79 106 79 113 0 4 -4 2 -8 -5 -6 -8 -9 -2 -9
18 0 35 35 67 62 57 8 -4 17 -2 20 4 4 5 10 7 15 4 4 -3 32 11 62 32 29 20 45
33 35 30 -11 -4 -16 -3 -12 4 4 6 13 8 21 5 8 -3 31 3 52 13 20 11 61 25 91
32 l54 13 -29 14 c-25 11 -25 12 -4 7 14 -4 35 -9 47 -12z m338 7 c-3 -5 -14
-10 -23 -9 -14 0 -13 2 3 9 27 11 27 11 20 0z m58 -7 c-7 -2 -19 -2 -25 0 -7
3 -2 5 12 5 14 0 19 -2 13 -5z m-533 -28 c-33 -19 -50 -18 -26 0 11 8 27 15
35 15 10 -1 7 -6 -9 -15z m1190 6 c0 -5 -7 -12 -16 -15 -14 -5 -15 -4 -4 9 14
17 20 19 20 6z m-613 -7 c-3 -3 -12 -4 -19 -1 -8 3 -5 6 6 6 11 1 17 -2 13 -5z
m-754 -41 c-7 -2 -13 -8 -13 -13 0 -13 39 -23 53 -13 7 4 5 0 -6 -9 -17 -16
-20 -16 -39 2 -20 18 -17 41 5 39 9 0 9 -2 0 -6z m52 -3 c-27 -12 -43 -12 -25
0 8 5 22 9 30 9 10 0 8 -3 -5 -9z m866 -17 c13 -17 13 -17 -6 -3 -11 8 -22 16
-24 17 -2 2 0 3 6 3 6 0 17 -8 24 -17z m-22 -22 c7 -5 12 -13 10 -18 -2 -5
-12 -1 -21 9 -19 19 -13 24 11 9z m-1435 -17 c3 -8 2 -12 -4 -9 -6 3 -10 10
-10 16 0 14 7 11 14 -7z m1480 -10 c3 -8 2 -12 -4 -9 -6 3 -10 10 -10 16 0 14
7 11 14 -7z m26 -44 c0 -5 -2 -10 -4 -10 -3 0 -8 5 -11 10 -3 6 -1 10 4 10 6
0 11 -4 11 -10z m-1558 -66 c-9 -16 -10 -14 -9 8 1 15 6 23 11 18 4 -4 4 -16
-2 -26z m478 16 c0 -5 -2 -10 -4 -10 -3 0 -8 5 -11 10 -3 6 -1 10 4 10 6 0 11
-4 11 -10z m-33 -47 c-9 -9 -20 -14 -24 -10 -3 4 2 14 13 21 25 19 33 10 11
-11z m-445 -15 c-7 -7 -12 -8 -12 -2 0 14 12 26 19 19 2 -3 -1 -11 -7 -17z
m2107 -25 c1 9 6 17 11 17 7 0 7 -6 0 -19 -5 -11 -10 -29 -10 -40 0 -11 -3
-22 -7 -24 -5 -3 -9 18 -9 47 -1 37 1 44 6 26 5 -16 8 -19 9 -7z m-353 -129
c-3 -26 -6 -56 -6 -68 -1 -34 -17 2 -22 49 -3 22 -3 32 -1 23 8 -32 26 -20 20
12 -4 19 -2 30 5 30 7 0 9 -15 4 -46z m351 14 c-3 -8 -6 -5 -6 6 -1 11 2 17 5
13 3 -3 4 -12 1 -19z m34 -15 c-9 -16 -10 -15 -9 9 2 16 6 24 11 19 5 -5 5
-17 -2 -28z m-2224 -50 c-3 -10 -5 -4 -5 12 0 17 2 24 5 18 2 -7 2 -21 0 -30z
m430 -5 c-3 -8 -6 -5 -6 6 -1 11 2 17 5 13 3 -3 4 -12 1 -19z m1420 -60 c-3
-8 -6 -5 -6 6 -1 11 2 17 5 13 3 -3 4 -12 1 -19z m-1850 -40 c-3 -8 -6 -5 -6
6 -1 11 2 17 5 13 3 -3 4 -12 1 -19z m1846 -23 c-3 -9 -8 -14 -10 -11 -3 3 -2
9 2 15 9 16 15 13 8 -4z m414 -47 c-3 -8 -6 -5 -6 6 -1 11 2 17 5 13 3 -3 4
-12 1 -19z m-2280 -40 c-3 -8 -6 -5 -6 6 -1 11 2 17 5 13 3 -3 4 -12 1 -19z
m2280 -30 c-3 -8 -6 -5 -6 6 -1 11 2 17 5 13 3 -3 4 -12 1 -19z m-2280 -70
c-3 -8 -6 -5 -6 6 -1 11 2 17 5 13 3 -3 4 -12 1 -19z m20 -30 c-2 -13 -4 -5
-4 17 -1 22 1 32 4 23 2 -10 2 -28 0 -40z m1850 -40 c-3 -8 -6 -5 -6 6 -1 11
2 17 5 13 3 -3 4 -12 1 -19z m-33 -54 c3 -8 2 -12 -4 -9 -6 3 -10 10 -10 16 0
14 7 11 14 -7z m409 -45 c-5 -5 -9 3 -11 19 -1 24 0 25 9 9 7 -11 7 -23 2 -28z
m-36 -11 c-3 -7 -5 -2 -5 12 0 14 2 19 5 13 2 -7 2 -19 0 -25z m-1735 -20 c-8
-8 -9 -4 -5 13 4 13 8 18 11 10 2 -7 -1 -18 -6 -23z m1736 -23 c-3 -3 -9 2
-12 12 -6 14 -5 15 5 6 7 -7 10 -15 7 -18z m36 0 c-4 -8 -8 -15 -10 -15 -2 0
-4 7 -4 15 0 8 4 15 10 15 5 0 7 -7 4 -15z m-27 -57 c-3 -8 -6 -5 -6 6 -1 11
2 17 5 13 3 -3 4 -12 1 -19z m-2116 -11 c-10 -9 -11 -8 -5 6 3 10 9 15 12 12
3 -3 0 -11 -7 -18z m1649 13 c0 -5 -5 -10 -11 -10 -5 0 -7 5 -4 10 3 6 8 10
11 10 2 0 4 -4 4 -10z m-1209 -22 c11 -20 10 -21 -3 -11 -8 7 -18 10 -22 6 -4
-4 -4 0 0 10 8 22 11 22 25 -5z m1663 -4 c3 -8 2 -12 -4 -9 -6 3 -10 10 -10
16 0 14 7 11 14 -7z m-1571 -106 c-2 -5 -9 -8 -14 -8 -6 0 -7 5 -3 12 5 8 2 9
-10 5 -9 -4 -15 -3 -11 2 8 14 -6 42 -18 34 -6 -3 -7 -1 -3 6 6 8 16 4 35 -16
16 -15 26 -31 24 -35z m1050 32 c-3 -11 -7 -20 -9 -20 -2 0 -4 9 -4 20 0 11 4
20 9 20 5 0 7 -9 4 -20z m457 -25 c0 -5 -5 -3 -10 5 -5 8 -10 20 -10 25 0 6 5
3 10 -5 5 -8 10 -19 10 -25z m26 -7 c-19 -27 -21 -19 -4 18 7 14 14 21 16 15
2 -6 -4 -21 -12 -33z m-576 -73 c-7 -8 -16 -15 -21 -15 -5 0 -1 8 9 18 20 22
31 19 12 -3z m-1410 5 c0 8 2 11 5 9 2 -3 2 -15 -2 -27 -5 -21 -6 -21 -19 -5
-18 24 -18 38 1 23 12 -10 15 -10 15 0z m535 -30 c10 -11 16 -20 13 -20 -3 0
-13 9 -23 20 -10 11 -16 20 -13 20 3 0 13 -9 23 -20z m901 -17 c-10 -10 -19 5
-10 18 6 11 8 11 12 0 2 -7 1 -15 -2 -18z m-921 -1 c-3 -3 -11 0 -18 7 -9 10
-8 11 6 5 10 -3 15 -9 12 -12z m-470 -21 c0 -8 -7 -17 -15 -19 -13 -5 -13 -3
0 13 14 17 13 18 -2 12 -10 -3 -20 -1 -24 4 -4 7 3 9 17 7 13 -1 24 -9 24 -17z
m1845 -16 c-12 -15 -30 -12 -30 5 0 5 7 7 15 4 8 -4 15 -1 15 7 0 7 3 9 6 6 4
-4 1 -13 -6 -22z m-607 8 c-7 -2 -19 -2 -25 0 -7 3 -2 5 12 5 14 0 19 -2 13
-5z m-1197 -18 c4 -8 1 -22 -6 -30 -11 -13 -14 -13 -25 2 -10 13 -10 22 -3 30
14 17 27 16 34 -2z m657 -2 c-7 -2 -21 -2 -30 0 -10 3 -4 5 12 5 17 0 24 -2
18 -5z m540 -10 c-7 -2 -21 -2 -30 0 -10 3 -4 5 12 5 17 0 24 -2 18 -5z m-524
-7 c-2 -2 -22 -6 -44 -9 -28 -5 -34 -4 -20 3 19 8 73 14 64 6z m456 -6 c3 -6
-1 -7 -9 -4 -18 7 -21 14 -7 14 6 0 13 -4 16 -10z m-58 -6 c-3 -3 -12 -4 -19
-1 -8 3 -5 6 6 6 11 1 17 -2 13 -5z m130 0 c-3 -3 -12 -4 -19 -1 -8 3 -5 6 6
6 11 1 17 -2 13 -5z m533 -37 c0 -4 -6 -2 -14 5 -8 7 -12 17 -9 22 5 8 23 -12
23 -27z m-1720 19 c0 -3 -4 -8 -10 -11 -5 -3 -10 -1 -10 4 0 6 5 11 10 11 6 0
10 -2 10 -4z m50 -11 c7 -8 8 -15 2 -15 -5 0 -15 7 -22 15 -7 8 -8 15 -2 15 5
0 15 -7 22 -15z m1637 -50 c-9 -7 -13 -16 -9 -20 4 -5 2 -5 -5 -2 -6 4 -13 3
-15 -3 -1 -5 -13 -7 -25 -4 -13 4 -20 11 -17 16 3 5 13 7 21 4 19 -8 59 19 44
29 -6 3 -8 11 -5 17 4 7 11 4 17 -7 7 -14 6 -21 -6 -30z m-1661 27 c6 -4 14
-16 18 -27 6 -17 5 -18 -6 -5 -7 8 -19 21 -27 28 -16 13 -3 17 15 4z m83 -81
c7 -5 12 -13 10 -18 -2 -5 -12 -1 -21 9 -19 19 -13 24 11 9z m1426 -49 c-3 -3
-11 0 -18 7 -9 10 -8 11 6 5 10 -3 15 -9 12 -12z m-1333 -18 c13 3 17 3 11 0
-18 -8 -16 -27 2 -20 16 6 21 -9 6 -19 -5 -3 -24 9 -43 27 -18 17 -25 26 -16
19 9 -7 27 -10 40 -7z m1242 -56 c-5 -8 -1 -9 12 -4 14 5 16 4 7 -5 -6 -6 -17
-8 -25 -3 -7 5 -22 8 -33 6 l-20 -2 20 9 c29 14 47 13 39 -1z m-1137 -24 c0
-6 -9 -9 -19 -6 -27 7 -29 17 -4 17 13 0 23 -5 23 -11z m43 -4 c0 -5 -7 -7
-15 -4 -8 4 -15 8 -15 10 0 2 7 4 15 4 8 0 15 -4 15 -10z m1080 0 c0 -5 -2
-10 -4 -10 -3 0 -8 5 -11 10 -3 6 -1 10 4 10 6 0 11 -4 11 -10z m-1063 -42
c-3 -7 -5 -2 -5 12 0 14 2 19 5 13 2 -7 2 -19 0 -25z m1013 22 c0 -5 -4 -10
-10 -10 -5 0 -10 5 -10 10 0 6 5 10 10 10 6 0 10 -4 10 -10z m-920 -30 c13 -9
13 -10 0 -10 -13 0 -13 -1 0 -10 24 -15 7 -18 -20 -3 -22 11 -23 13 -5 13 17
0 17 2 5 10 -8 5 -10 10 -5 10 6 0 17 -5 25 -10z m815 0 c-3 -5 2 -10 12 -11
16 0 16 -1 -2 -9 -27 -12 -43 -12 -25 0 13 9 13 10 0 10 -13 0 -13 1 0 10 19
12 23 12 15 0z m-732 -17 c-7 -2 -21 -2 -30 0 -10 3 -4 5 12 5 17 0 24 -2 18
-5z m684 0 c-9 -2 -15 -9 -12 -14 4 -5 2 -9 -4 -9 -13 0 -22 15 -14 24 3 3 16
5 27 5 17 -1 18 -2 3 -6z m-686 -31 c-7 -2 -18 1 -23 6 -8 8 -4 9 13 5 13 -4
18 -8 10 -11z m202 -49 c-7 -2 -19 -2 -25 0 -7 3 -2 5 12 5 14 0 19 -2 13 -5z
m140 0 c-13 -2 -33 -2 -45 0 -13 2 -3 4 22 4 25 0 35 -2 23 -4z m100 0 c-7 -2
-19 -2 -25 0 -7 3 -2 5 12 5 14 0 19 -2 13 -5z"/>
<path d="M10645 4150 c-4 -6 -10 -8 -15 -5 -9 6 -60 -15 -60 -24 0 -3 4 -12 9
-20 8 -12 12 -13 26 -1 9 7 13 20 10 28 -3 9 0 12 9 9 8 -3 20 1 26 9 7 8 10
14 7 14 -3 0 -9 -5 -12 -10z"/>
<path d="M11736 3987 c3 -10 9 -15 12 -12 3 3 0 11 -7 18 -10 9 -11 8 -5 -6z"/>
<path d="M10411 3314 c0 -11 3 -14 6 -6 3 7 2 16 -1 19 -3 4 -6 -2 -5 -13z"/>
<path d="M10210 2905 c0 -8 5 -15 10 -15 6 0 10 7 10 15 0 8 -4 15 -10 15 -5
0 -10 -7 -10 -15z"/>
<path d="M13469 4760 c-47 -3 -92 -11 -100 -15 -7 -5 -23 -9 -34 -10 -76 -5
-77 -5 -71 -21 5 -13 4 -14 -7 -6 -10 9 -28 6 -73 -9 -90 -31 -154 -61 -148
-70 3 -5 -3 -6 -12 -2 -13 5 -16 2 -11 -9 4 -11 1 -14 -11 -11 -20 5 -158 -88
-155 -105 2 -6 -4 -9 -12 -6 -8 4 -15 1 -15 -5 0 -6 -7 -11 -16 -11 -8 0 -12
-4 -9 -10 3 -5 1 -10 -6 -10 -8 0 -8 -4 1 -16 11 -12 10 -18 -5 -32 -18 -16
-18 -16 -5 1 10 14 11 20 1 30 -10 9 -19 4 -43 -23 -17 -19 -45 -51 -63 -70
-18 -20 -44 -55 -60 -78 -26 -40 -27 -43 -11 -67 18 -28 20 -35 7 -35 -5 0
-13 12 -18 27 l-9 26 -26 -44 c-66 -112 -119 -267 -138 -400 -7 -51 -7 -75 0
-77 16 -6 12 -22 -7 -22 -14 0 -15 -12 -10 -112 9 -175 47 -327 115 -468 56
-116 100 -182 114 -174 7 5 8 3 4 -5 -5 -7 -1 -20 8 -29 9 -9 27 -30 41 -47
19 -23 24 -25 20 -10 -4 12 -1 10 7 -5 19 -39 127 -142 143 -136 8 3 12 0 9
-7 -5 -16 152 -121 167 -111 8 4 9 3 5 -4 -7 -11 7 -16 41 -15 7 1 11 -3 8 -7
-5 -8 93 -50 116 -50 5 0 17 -4 27 -10 25 -14 133 -40 127 -30 -3 5 -1 12 5
15 6 4 9 1 8 -6 -5 -19 39 -26 183 -28 167 -2 324 25 371 65 16 13 37 24 46
24 9 -1 2 -7 -17 -16 -19 -8 -32 -17 -29 -20 16 -15 256 106 343 174 89 69
100 82 84 94 -10 6 -7 7 10 3 19 -6 23 -4 18 8 -4 11 -1 14 7 11 16 -6 88 75
79 89 -3 6 -1 7 4 4 15 -9 91 103 90 133 0 29 21 85 22 58 1 -29 16 -21 34 18
12 24 13 33 5 28 -7 -4 -4 4 8 17 28 33 45 76 37 96 -5 12 -3 14 7 8 10 -6 12
-3 8 13 -4 12 -3 22 2 22 7 0 19 41 26 90 1 8 7 39 13 69 14 69 14 260 0 337
-6 32 -18 65 -27 73 -16 13 -16 13 1 8 21 -8 21 -6 1 41 -8 20 -15 38 -15 40
1 1 1 12 1 25 0 17 -2 19 -9 7 -6 -8 -8 -28 -5 -45 4 -23 1 -21 -11 13 -12 31
-13 47 -5 60 8 14 9 11 5 -13 -5 -27 -4 -27 5 -7 7 17 5 31 -7 57 -9 19 -21
35 -25 35 -5 0 -8 6 -6 13 4 16 -22 77 -33 77 -5 0 -9 -8 -10 -17 0 -12 -2
-13 -6 -5 -3 7 0 18 6 25 8 10 -1 31 -35 80 -25 37 -49 65 -55 61 -6 -3 -9 2
-7 12 2 12 -2 18 -10 16 -8 -1 -11 1 -8 6 8 14 -65 94 -80 88 -8 -3 -11 0 -7
11 5 12 1 14 -18 8 -17 -4 -20 -3 -10 3 16 12 5 24 -86 95 -54 43 -64 47 -85
37 -20 -10 -21 -10 -6 3 16 13 11 17 -52 50 -41 22 -76 34 -87 31 -13 -4 -15
-3 -5 4 11 7 6 12 -20 22 -70 25 -89 29 -81 17 3 -7 -2 -5 -13 4 -28 24 -151
51 -198 45 -30 -4 -35 -3 -21 3 15 7 8 10 -31 10 -28 1 -64 3 -80 5 -16 2 -68
0 -115 -4z m-236 -77 c-7 -2 -19 -2 -25 0 -7 3 -2 5 12 5 14 0 19 -2 13 -5z
m767 -29 c0 -18 -28 -17 -60 2 -24 15 -21 15 29 -1 16 -5 21 -4 17 4 -4 6 -13
11 -21 11 -8 0 -16 4 -20 10 -3 5 7 5 25 -1 16 -6 30 -17 30 -25z m-750 6 c0
-5 -5 -10 -11 -10 -5 0 -7 5 -4 10 3 6 8 10 11 10 2 0 4 -4 4 -10z m-83 -6
c-3 -3 -12 -4 -19 -1 -8 3 -5 6 6 6 11 1 17 -2 13 -5z m957 -49 c11 -8 15 -15
10 -15 -6 0 -19 7 -30 15 -10 8 -14 14 -9 14 6 0 19 -6 29 -14z m-1114 -35 c8
-5 11 -10 5 -10 -5 0 -17 5 -25 10 -8 5 -10 10 -5 10 6 0 17 -5 25 -10z m1100
0 c-19 -13 -30 -13 -30 0 0 6 10 10 23 10 18 0 19 -2 7 -10z m-1147 -15 c-3
-9 -8 -14 -10 -11 -3 3 -2 9 2 15 9 16 15 13 8 -4z m-38 -24 c-3 -6 -14 -11
-23 -11 -13 0 -13 2 4 14 21 15 30 14 19 -3z m-2 -38 c-7 -2 -21 -2 -30 0 -10
3 -4 5 12 5 17 0 24 -2 18 -5z m-163 -78 c-7 -8 -17 -15 -23 -15 -6 0 -2 7 9
15 25 19 30 19 14 0z m1659 -39 c-3 -3 -11 5 -18 17 -13 21 -12 21 5 5 10 -10
16 -20 13 -22z m-1713 -32 c-10 -14 -20 -23 -23 -21 -6 6 30 57 36 51 2 -2 -4
-15 -13 -30z m1739 -4 c0 -8 -9 -15 -20 -16 -13 -1 -21 5 -21 16 0 11 8 17 21
16 11 -1 20 -8 20 -16z m-648 -26 c-3 -3 -12 -4 -19 -1 -8 3 -5 6 6 6 11 1 17
-2 13 -5z m68 -4 c3 -5 1 -10 -4 -10 -6 0 -11 5 -11 10 0 6 2 10 4 10 3 0 8
-4 11 -10z m-478 -6 c-3 -3 -12 -4 -19 -1 -8 3 -5 6 6 6 11 1 17 -2 13 -5z
m382 -24 c78 -22 137 -51 214 -106 50 -36 63 -42 51 -22 -4 7 -3 8 4 4 6 -4 9
-13 5 -21 -5 -15 12 -21 20 -7 2 4 2 2 1 -5 -2 -6 16 -32 38 -58 31 -35 43
-43 50 -33 5 9 7 5 6 -12 -2 -16 2 -24 10 -22 8 1 11 -2 8 -7 -3 -5 5 -32 20
-60 33 -66 64 -158 64 -188 0 -13 4 -21 10 -18 5 3 8 25 6 48 -2 23 -1 29 2
12 5 -30 5 -30 12 -5 4 16 7 2 7 -40 0 -43 -2 -55 -7 -35 -6 30 -6 30 -11 5
-3 -14 -5 -62 -4 -108 2 -46 -1 -98 -5 -115 -26 -99 -44 -159 -52 -163 -4 -3
-8 -11 -8 -17 0 -7 4 -6 10 3 5 8 10 11 10 6 0 -5 -7 -16 -15 -25 -38 -39 -84
-121 -79 -138 4 -12 3 -14 -3 -5 -7 9 -25 -4 -66 -48 -32 -33 -62 -60 -68 -60
-6 0 -9 -6 -6 -14 3 -8 -1 -20 -9 -26 -10 -9 -14 -9 -14 -1 0 6 5 11 12 11 6
0 9 3 5 6 -8 8 -67 -28 -61 -37 2 -4 -1 -11 -7 -15 -8 -4 -9 -3 -5 4 4 7 5 12
2 12 -12 0 -56 -24 -56 -30 0 -4 -12 -10 -27 -13 -16 -3 -57 -13 -93 -22 -72
-18 -231 -35 -224 -24 2 4 -16 6 -41 4 -31 -3 -43 0 -39 7 5 7 -2 9 -20 6 -14
-3 -26 -1 -26 3 0 5 -11 9 -24 9 -14 0 -27 4 -31 10 -3 5 -12 7 -20 3 -8 -3
-15 -1 -15 4 0 15 -47 33 -67 27 -15 -5 -16 -4 -3 6 12 10 11 11 -10 6 -14 -3
-32 -1 -40 5 -11 8 -9 9 10 4 l25 -6 -25 20 c-14 11 -33 21 -42 21 -9 0 -20 5
-24 12 -5 7 -3 8 7 3 8 -5 -9 13 -38 39 -60 54 -149 173 -159 210 -3 15 -11
23 -17 19 -6 -3 -7 -1 -3 6 4 6 3 17 -2 24 -5 7 -15 35 -22 64 -8 29 -16 50
-19 48 -6 -3 -7 9 -12 153 -2 67 -5 82 -18 80 -9 -2 -16 5 -18 17 -3 19 -2 19
5 1 8 -18 9 -18 26 -1 11 11 16 27 13 42 -2 12 -1 23 3 23 4 0 11 11 14 24 3
13 9 32 13 42 4 12 3 15 -5 10 -8 -5 -12 2 -11 21 0 23 2 25 8 9 6 -17 13 -10
37 40 16 32 50 87 75 121 26 34 44 65 41 69 -4 4 -2 4 4 1 7 -4 17 0 24 8 11
13 10 14 -6 9 -16 -5 -16 -4 -4 5 13 10 13 12 0 20 -8 6 -11 13 -7 17 4 4 14
-1 23 -12 11 -13 17 -15 20 -6 3 6 11 12 18 12 7 0 21 9 31 20 11 12 13 20 6
20 -7 0 -9 5 -5 11 5 8 9 8 14 -1 6 -10 13 -9 31 5 l24 17 -22 -5 c-13 -3 -23
-1 -23 5 0 5 -9 7 -19 3 -11 -3 -22 -2 -25 3 -6 10 68 7 84 -3 5 -3 39 8 76
25 37 17 95 38 128 45 86 20 260 13 355 -15z m-419 15 c0 -8 -52 -26 -58 -20
-3 2 6 9 19 14 28 11 39 13 39 6z m427 -1 c-3 -3 -12 -4 -19 -1 -8 3 -5 6 6 6
11 1 17 -2 13 -5z m143 -16 c0 -6 -6 -5 -15 2 -8 7 -15 14 -15 16 0 2 7 1 15
-2 8 -4 15 -11 15 -16z m-1280 4 c0 -5 -7 -17 -15 -28 -14 -18 -14 -17 -4 9
12 27 19 34 19 19z m1223 -9 c-7 -2 -19 -2 -25 0 -7 3 -2 5 12 5 14 0 19 -2
13 -5z m663 -30 c3 -10 10 -26 15 -37 8 -14 7 -17 -3 -14 -7 3 -14 17 -16 31
-4 37 -22 34 -22 -3 0 -16 5 -30 10 -30 6 0 10 -5 10 -11 0 -8 -5 -8 -15 1
-15 13 -21 61 -8 73 11 12 23 8 29 -10z m-540 -19 c-12 -8 -13 -13 -3 -24 10
-10 8 -10 -8 -2 -11 6 -28 17 -38 24 -16 12 -13 13 23 13 32 0 38 -2 26 -11z
m-1348 -30 c-4 -3 -12 5 -18 18 -12 22 -12 22 6 6 10 -10 15 -20 12 -24z m-72
-36 c-9 -12 -16 -19 -16 -15 0 11 24 47 28 42 2 -2 -3 -14 -12 -27z m1995 9
c-10 -9 -11 -8 -5 6 3 10 9 15 12 12 3 -3 0 -11 -7 -18z m30 -60 c-10 -9 -11
-8 -5 6 3 10 9 15 12 12 3 -3 0 -11 -7 -18z m-2048 -2 c-3 -9 -8 -14 -10 -11
-3 3 -2 9 2 15 9 16 15 13 8 -4z m2072 -15 c3 -5 1 -10 -4 -10 -6 0 -11 5 -11
10 0 6 2 10 4 10 3 0 8 -4 11 -10z m-2068 -32 c-3 -8 -6 -5 -6 6 -1 11 2 17 5
13 3 -3 4 -12 1 -19z m452 -8 c-13 -16 -24 -28 -27 -26 -5 6 31 55 41 56 4 0
-2 -13 -14 -30z m1143 8 c-7 -7 -12 -8 -12 -2 0 14 12 26 19 19 2 -3 -1 -11
-7 -17z m-1632 -32 c0 -3 -4 -8 -10 -11 -5 -3 -10 -1 -10 4 0 6 5 11 10 11 6
0 10 -2 10 -4z m1700 -30 c0 -3 -4 -8 -10 -11 -5 -3 -10 -1 -10 4 0 6 5 11 10
11 6 0 10 -2 10 -4z m20 -51 c0 -5 -5 -3 -10 5 -5 8 -10 20 -10 25 0 6 5 3 10
-5 5 -8 10 -19 10 -25z m-1317 -27 c7 -4 3 -6 -9 -6 -17 2 -19 7 -15 32 5 29
5 30 9 6 2 -14 9 -28 15 -32z m-433 -53 c0 -23 -3 -27 -10 -15 -9 13 -11 13
-21 0 -9 -13 -10 -12 -5 3 3 11 9 30 12 44 8 32 24 11 24 -32z m2177 -17 c-3
-8 -6 -5 -6 6 -1 11 2 17 5 13 3 -3 4 -12 1 -19z m-350 -30 c-3 -8 -6 -5 -6 6
-1 11 2 17 5 13 3 -3 4 -12 1 -19z m-1867 -65 c-11 -17 -11 -17 -6 0 3 10 7
28 7 40 2 22 2 22 6 0 2 -12 -1 -30 -7 -40z m2255 38 c3 -5 1 -12 -5 -16 -5
-3 -10 1 -10 9 0 18 6 21 15 7z m-378 -88 c-3 -10 -5 -4 -5 12 0 17 2 24 5 18
2 -7 2 -21 0 -30z m-1860 -10 c-3 -10 -5 -4 -5 12 0 17 2 24 5 18 2 -7 2 -21
0 -30z m350 -45 c-3 -7 -5 -2 -5 12 0 14 2 19 5 13 2 -7 2 -19 0 -25z m20 -65
c-3 -10 -5 -2 -5 17 0 19 2 27 5 18 2 -10 2 -26 0 -35z m23 -76 c0 -7 -4 -6
-10 3 -8 12 -10 12 -10 1 0 -8 -3 -12 -6 -8 -9 9 6 28 17 22 5 -4 9 -12 9 -18z
m1447 1 c-3 -8 -6 -5 -6 6 -1 11 2 17 5 13 3 -3 4 -12 1 -19z m-1840 -20 c-3
-7 -5 -2 -5 12 0 14 2 19 5 13 2 -7 2 -19 0 -25z m1844 -53 c-6 -35 -9 -41
-10 -20 -1 30 9 78 15 73 2 -2 -1 -26 -5 -53z m-1864 13 c-3 -7 -5 -2 -5 12 0
14 2 19 5 13 2 -7 2 -19 0 -25z m30 -20 c-3 -7 -5 -2 -5 12 0 14 2 19 5 13 2
-7 2 -19 0 -25z m1850 -10 c-3 -7 -5 -2 -5 12 0 14 2 19 5 13 2 -7 2 -19 0
-25z m-1864 -25 c3 -16 1 -35 -4 -43 -9 -13 -10 -13 -6 0 2 8 0 27 -4 43 -4
15 -4 27 1 27 4 0 10 -12 13 -27z m1808 -20 c-8 -15 -10 -15 -11 -2 0 17 10
32 18 25 2 -3 -1 -13 -7 -23z m396 -50 c-3 -10 -5 -4 -5 12 0 17 2 24 5 18 2
-7 2 -21 0 -30z m-2189 -29 c-3 -14 -5 -12 -10 9 -3 19 -2 25 4 19 6 -6 8 -18
6 -28z m2204 -12 c-7 -2 -12 -11 -12 -19 0 -9 -3 -14 -6 -10 -10 10 7 48 19
40 8 -5 8 -8 -1 -11z m-438 -41 c-4 -17 -9 -30 -11 -27 -3 2 -2 19 2 36 9 41
17 33 9 -9z m-1337 -3 c-3 -7 -5 -2 -5 12 0 14 2 19 5 13 2 -7 2 -19 0 -25z
m53 -20 c0 -6 -7 -5 -15 2 -8 7 -15 17 -15 22 0 6 7 5 15 -2 8 -7 15 -17 15
-22z m1710 -13 c0 -5 -5 -3 -10 5 -5 8 -10 20 -10 25 0 6 5 3 10 -5 5 -8 10
-19 10 -25z m-456 10 c3 -9 0 -15 -9 -15 -9 0 -12 6 -9 15 4 8 7 15 9 15 2 0
5 -7 9 -15z m-1233 -38 c-10 -9 -11 -8 -5 6 3 10 9 15 12 12 3 -3 0 -11 -7
-18z m-441 -27 c0 -5 -2 -10 -4 -10 -3 0 -8 5 -11 10 -3 6 -1 10 4 10 6 0 11
-4 11 -10z m478 -21 c-3 -8 -7 -3 -11 10 -4 17 -3 21 5 13 5 -5 8 -16 6 -23z
m-466 -29 c10 -10 14 -22 9 -24 -4 -3 -13 6 -19 19 -14 30 -12 31 10 5z m533
-40 c-3 -5 -1 -10 6 -10 7 0 10 -3 6 -6 -9 -9 -28 6 -22 17 4 5 8 9 11 9 3 0
2 -4 -1 -10z m-467 -50 c-7 -10 -14 -17 -17 -15 -4 4 18 35 25 35 2 0 -1 -9
-8 -20z m1924 -26 c-6 -12 -9 -7 -9 16 0 23 3 28 9 16 5 -9 5 -23 0 -32z m-28
21 c-4 -8 -8 -15 -10 -15 -2 0 -4 7 -4 15 0 8 4 15 10 15 5 0 7 -7 4 -15z
m-1888 -33 c-17 -16 -18 -16 -5 5 7 12 15 20 18 17 3 -2 -3 -12 -13 -22z m15
-25 c-10 -9 -11 -8 -5 6 3 10 9 15 12 12 3 -3 0 -11 -7 -18z m691 -40 c-14 -6
-26 -7 -32 -1 -5 5 4 9 23 10 30 1 30 1 9 -9z m495 7 c-3 -3 -12 -4 -19 -1 -8
3 -5 6 6 6 11 1 17 -2 13 -5z m-463 -25 c-10 -4 -32 -7 -49 -7 l-30 0 33 8
c18 4 36 10 39 14 3 3 10 3 16 -1 6 -4 3 -10 -9 -14z m423 -5 c-3 -3 -12 -4
-19 -1 -8 3 -5 6 6 6 11 1 17 -2 13 -5z m668 -24 c0 -8 -8 -14 -18 -14 -14 2
-16 -3 -11 -20 4 -11 3 -18 -1 -14 -5 5 -9 21 -10 36 -1 24 2 29 19 28 12 -1
21 -8 21 -16z m-1657 -77 c-6 -7 -12 -13 -13 -13 -2 0 -5 6 -8 13 -3 7 3 13
14 13 13 0 15 -3 7 -13z m1496 -84 c-3 -5 -15 -14 -27 -20 -21 -12 -21 -11 -4
8 9 11 14 23 10 27 -4 4 0 4 10 0 9 -3 14 -10 11 -15z m-1343 -6 c13 -17 13
-17 -6 -3 -11 8 -22 16 -24 17 -2 2 0 3 6 3 6 0 17 -8 24 -17z m-36 -13 c3 -5
1 -10 -4 -10 -6 0 -11 5 -11 10 0 6 2 10 4 10 3 0 8 -4 11 -10z m130 -52 c3
-2 -6 -10 -21 -16 -19 -9 -24 -9 -18 -1 5 8 1 10 -13 7 -11 -3 -20 0 -20 6 0
11 62 15 72 4z m1076 -6 c-7 -2 -18 1 -23 6 -8 8 -4 9 13 5 13 -4 18 -8 10
-11z m89 13 c0 -7 -104 -55 -109 -50 -2 3 20 16 50 29 62 29 59 27 59 21z
m-205 -85 c3 -4 15 -6 28 -4 21 4 20 4 -2 -6 -17 -8 -26 -7 -31 0 -5 8 -15 8
-35 0 -15 -6 -30 -8 -33 -5 -3 3 1 5 9 5 11 0 11 2 2 8 -8 5 1 8 22 9 19 1 37
-3 40 -7z m-758 -36 c-3 -3 -12 -4 -19 -1 -8 3 -5 6 6 6 11 1 17 -2 13 -5z
m316 -41 c-7 -2 -19 -2 -25 0 -7 3 -2 5 12 5 14 0 19 -2 13 -5z m204 -9 c-3
-3 -12 -4 -19 -1 -8 3 -5 6 6 6 11 1 17 -2 13 -5z m-189 -11 c-15 -2 -42 -2
-60 0 -18 2 -6 4 27 4 33 0 48 -2 33 -4z m139 1 c-3 -3 -12 -4 -19 -1 -8 3 -5
6 6 6 11 1 17 -2 13 -5z"/>
<path d="M14420 4340 c0 -5 5 -10 10 -10 6 0 10 5 10 10 0 6 -4 10 -10 10 -5
0 -10 -4 -10 -10z"/>
<path d="M14420 2860 c0 -5 5 -10 10 -10 6 0 10 5 10 10 0 6 -4 10 -10 10 -5
0 -10 -4 -10 -10z"/>
<path d="M15700 4758 c-47 -5 -91 -9 -97 -10 -10 -1 -10 -4 0 -16 10 -13 9
-14 -10 -4 -18 10 -31 9 -65 -4 -24 -8 -53 -18 -65 -21 -13 -3 -23 -10 -23
-15 0 -5 -4 -6 -10 -3 -5 3 -18 1 -27 -5 -14 -9 -14 -10 -2 -7 19 6 21 -20 2
-27 -8 -3 -11 -1 -8 4 11 17 -17 11 -31 -7 -13 -17 -14 -17 -7 1 6 18 4 18
-26 -3 -18 -13 -28 -26 -23 -30 6 -4 -7 -6 -28 -6 -21 0 -36 3 -33 8 3 4 -6
17 -18 28 -34 30 -169 91 -186 85 -8 -3 -12 -2 -9 3 7 10 -88 31 -136 29 l-36
-1 0 -1101 c-1 -606 3 -1121 8 -1146 6 -31 5 -49 -3 -59 -10 -12 2 -13 83 -8
52 3 112 12 132 19 82 29 201 140 182 170 -4 6 -3 8 3 5 17 -11 36 45 40 118
3 39 8 313 12 610 7 476 10 547 26 600 9 33 17 68 17 78 0 9 3 15 9 12 5 -4 9
-2 9 3 0 6 20 37 45 69 42 57 125 122 173 137 12 4 22 11 22 16 0 5 8 7 18 4
16 -5 15 -4 -1 9 -18 15 -17 16 3 22 12 4 27 2 32 -3 8 -8 4 -9 -13 -6 -17 4
-20 3 -9 -4 17 -10 112 -4 106 7 -3 4 12 5 32 4 84 -8 160 -27 215 -54 31 -15
63 -27 70 -25 6 1 9 1 5 -1 -3 -2 23 -34 58 -70 35 -36 64 -72 64 -80 0 -8 4
-12 9 -9 5 3 8 0 8 -7 -1 -6 9 -43 22 -82 24 -70 24 -72 30 -665 6 -554 8
-598 25 -635 11 -22 19 -43 18 -46 -1 -3 12 -21 27 -40 25 -29 31 -32 45 -20
9 7 16 9 16 3 0 -5 -7 -13 -16 -16 -15 -6 -15 -8 1 -26 10 -11 24 -16 33 -13
10 4 14 2 9 -2 -8 -10 21 -45 37 -45 6 0 4 5 -4 10 -9 6 -10 10 -3 10 7 0 16
-6 20 -13 10 -17 69 -41 82 -33 5 4 12 2 16 -4 3 -5 41 -10 83 -9 52 0 71 3
57 9 -11 5 -14 9 -7 9 9 1 12 130 12 609 1 671 8 836 40 931 11 34 17 67 14
73 -4 6 -3 8 4 4 10 -6 59 62 54 76 -1 5 1 7 6 5 4 -1 21 11 37 27 17 16 24
25 16 21 -10 -6 -12 -4 -7 4 5 7 14 10 21 7 8 -3 18 1 24 8 20 24 126 65 199
78 94 16 191 0 287 -46 71 -35 155 -108 181 -159 9 -16 20 -25 26 -21 7 4 8 3
4 -5 -4 -6 2 -36 13 -66 32 -86 39 -209 40 -739 1 -315 5 -506 12 -517 5 -11
7 -23 4 -28 -17 -29 79 -192 104 -176 6 3 9 0 6 -7 -7 -17 79 -71 115 -72 15
-1 26 -5 22 -10 -3 -5 9 -6 29 -3 24 5 30 4 19 -3 -11 -7 8 -10 63 -10 l78 0
-4 778 c-2 648 -5 785 -18 825 -8 27 -17 46 -20 43 -3 -3 -6 7 -6 23 0 16 -8
46 -17 67 -37 81 -68 140 -85 162 -16 22 -19 23 -33 8 -14 -13 -17 -13 -22 -1
-3 8 -2 14 2 14 17 -3 32 2 32 9 0 5 -29 40 -64 78 -55 58 -66 67 -78 55 -11
-12 -10 -13 4 -8 23 8 38 -13 27 -38 -8 -18 -8 -17 -6 5 1 16 -3 25 -13 26
-30 2 -32 4 -20 19 11 13 9 20 -11 41 -12 13 -28 23 -34 20 -7 -2 -18 0 -26 6
-11 8 -10 9 4 4 31 -10 18 3 -45 44 -35 23 -71 39 -80 36 -10 -2 -16 1 -15 7
1 7 -18 19 -43 28 -25 8 -58 22 -75 29 -16 7 -48 13 -70 13 -22 0 -33 2 -25 5
8 4 -30 11 -85 17 -109 13 -318 0 -293 -17 8 -6 1 -7 -21 -3 -23 5 -31 4 -27
-4 4 -7 1 -9 -8 -5 -8 3 -30 -1 -47 -10 -18 -9 -37 -16 -43 -16 -15 0 -139
-59 -146 -69 -3 -5 -19 -16 -37 -25 -38 -19 -113 -88 -113 -104 0 -6 15 -9 35
-8 19 2 32 0 30 -5 -3 -4 -21 -6 -40 -5 -26 3 -35 -1 -36 -13 0 -9 -3 -11 -5
-4 -3 7 0 22 6 35 7 13 -3 6 -24 -17 -25 -29 -31 -41 -20 -43 8 -2 12 -7 9
-12 -3 -4 -15 -6 -27 -2 -17 4 -20 2 -15 -11 5 -14 3 -15 -13 -5 -20 13 -20
13 0 20 23 9 27 28 5 28 -8 0 -15 6 -15 14 0 7 -24 34 -54 60 -53 45 -74 57
-60 34 4 -7 3 -8 -5 -4 -6 4 -9 11 -6 16 6 10 -29 36 -55 42 -8 2 -21 10 -30
19 -14 15 -128 66 -196 87 -18 6 -37 6 -46 1 -10 -5 -26 -5 -40 1 -22 10 -22
10 5 5 15 -3 27 -1 27 5 0 5 -15 10 -32 11 -18 0 -46 2 -63 4 -88 11 -128 11
-205 3z m-752 -15 c-10 -2 -26 -2 -35 0 -10 3 -2 5 17 5 19 0 27 -2 18 -5z
m919 1 c-3 -3 -12 -4 -19 -1 -8 3 -5 6 6 6 11 1 17 -2 13 -5z m1360 0 c-3 -3
-12 -4 -19 -1 -8 3 -5 6 6 6 11 1 17 -2 13 -5z m-144 -11 c-7 -2 -21 -2 -30 0
-10 3 -4 5 12 5 17 0 24 -2 18 -5z m64 1 c-3 -3 -12 -4 -19 -1 -8 3 -5 6 6 6
11 1 17 -2 13 -5z m126 -1 c-7 -2 -19 -2 -25 0 -7 3 -2 5 12 5 14 0 19 -2 13
-5z m-2150 -50 c-7 -2 -19 -2 -25 0 -7 3 -2 5 12 5 14 0 19 -2 13 -5z m1017
-13 c-20 -13 -33 -13 -25 0 3 6 14 10 23 10 15 0 15 -2 2 -10z m-1030 -15 c0
-2 -13 -5 -29 -7 -19 -3 -27 0 -24 7 3 10 53 9 53 0z m43 6 c21 11 21 10 5 -6
-17 -18 -39 -13 -37 8 0 9 2 9 6 0 3 -10 10 -10 26 -2z m317 -5 c0 -2 -9 -6
-20 -9 -11 -3 -18 -1 -14 4 5 9 34 13 34 5z m740 -6 c0 -5 -5 -10 -11 -10 -5
0 -7 5 -4 10 3 6 8 10 11 10 2 0 4 -4 4 -10z m1350 0 c-20 -13 -33 -13 -25 0
3 6 14 10 23 10 15 0 15 -2 2 -10z m-2342 -12 c16 -16 15 -25 -4 -32 -9 -3
-12 -2 -9 5 4 5 1 16 -5 24 -15 18 1 20 18 3z m1082 -38 c12 -7 12 -12 2 -22
-9 -9 -12 -9 -12 5 0 9 -4 17 -10 17 -5 0 -10 -5 -10 -12 0 -6 -3 -9 -6 -5 -7
7 4 27 14 27 4 0 14 -5 22 -10z m420 0 c0 -5 -2 -10 -4 -10 -3 0 -8 5 -11 10
-3 6 -1 10 4 10 6 0 11 -4 11 -10z m1000 -8 c0 -4 -10 -13 -22 -21 -23 -14
-23 -14 -4 8 20 22 26 25 26 13z m-1011 -15 c9 -11 5 -13 -19 -12 -17 1 -33 5
-38 10 -4 4 4 4 17 0 16 -5 21 -4 17 4 -10 16 9 14 23 -2z m-1484 -15 c-3 -3
-11 0 -18 7 -9 10 -8 11 6 5 10 -3 15 -9 12 -12z m50 8 c13 -6 15 -9 5 -9 -8
0 -22 4 -30 9 -18 12 -2 12 25 0z m1053 -25 c-3 -3 -9 2 -12 12 -6 14 -5 15 5
6 7 -7 10 -15 7 -18z m307 5 c-3 -5 -12 -10 -18 -10 -7 0 -6 4 3 10 19 12 23
12 15 0z m-250 -28 c-3 -3 -11 0 -18 7 -9 10 -8 11 6 5 10 -3 15 -9 12 -12z
m1400 -8 c-17 -13 -18 -16 -5 -24 9 -6 10 -10 3 -10 -22 0 -26 23 -8 37 11 7
21 13 24 13 3 0 -3 -7 -14 -16z m-1419 -22 c-4 -3 -14 2 -24 12 -16 18 -16 18
6 6 13 -6 21 -14 18 -18z m62 6 c5 -7 6 -22 3 -32 -7 -17 -8 -18 -14 -3 -3 9
-2 17 4 17 6 0 8 4 4 10 -3 5 -13 6 -22 3 -11 -4 -14 -3 -9 5 9 15 21 15 34 0z
m1452 -58 c0 -5 -2 -10 -4 -10 -3 0 -8 5 -11 10 -3 6 -1 10 4 10 6 0 11 -4 11
-10z m-4 -37 c-8 -8 -36 5 -36 17 0 7 6 7 21 0 11 -7 18 -14 15 -17z m-1326 7
c0 -5 -5 -10 -11 -10 -5 0 -7 5 -4 10 3 6 8 10 11 10 2 0 4 -4 4 -10z m1375
-10 c26 -28 15 -31 -14 -3 -13 13 -20 23 -14 23 5 0 18 -9 28 -20z m-1945
-106 c0 -9 -28 -3 -46 11 -17 13 -16 14 14 4 17 -6 32 -13 32 -15z m15 16 c3
-6 -1 -7 -9 -4 -18 7 -21 14 -7 14 6 0 13 -4 16 -10z m-408 -6 c-3 -3 -12 -4
-19 -1 -8 3 -5 6 6 6 11 1 17 -2 13 -5z m1454 -11 c-18 -8 -36 -12 -39 -9 -3
4 1 6 9 6 11 0 11 2 2 8 -8 5 2 8 25 9 l37 0 -34 -14z m306 11 c-3 -3 -12 -4
-19 -1 -8 3 -5 6 6 6 11 1 17 -2 13 -5z m58 -4 c-27 -12 -43 -12 -25 0 8 5 22
9 30 9 10 0 8 -3 -5 -9z m-1835 -20 c8 -5 11 -10 5 -10 -5 0 -17 5 -25 10 -8
5 -10 10 -5 10 6 0 17 -5 25 -10z m-20 -25 c0 -2 -6 -5 -13 -8 -8 -3 -14 1
-14 8 0 7 6 11 14 8 7 -3 13 -6 13 -8z m-68 -23 c17 -7 16 -8 -2 -19 -16 -11
-18 -10 -14 2 4 8 1 15 -5 15 -6 0 -11 -5 -11 -12 0 -6 -3 -9 -6 -5 -7 7 4 27
14 26 4 0 15 -4 24 -7z m672 -49 c4 -10 1 -10 -14 -1 -11 7 -22 18 -24 25 -4
10 -1 10 14 1 11 -7 22 -18 24 -25z m1436 27 c0 -5 -2 -10 -4 -10 -3 0 -8 5
-11 10 -3 6 -1 10 4 10 6 0 11 -4 11 -10z m421 -37 c-12 -20 -14 -14 -5 12 4
9 9 14 11 11 3 -2 0 -13 -6 -23z m-444 -5 c-3 -8 -6 -5 -6 6 -1 11 2 17 5 13
3 -3 4 -12 1 -19z m-2166 -49 c-24 -34 -41 -41 -41 -18 0 6 5 7 11 3 8 -5 10
1 6 18 -8 30 -3 36 27 34 l22 -1 -25 -36z m794 21 c27 -30 12 -34 -15 -5 -13
14 -19 25 -13 25 5 0 18 -9 28 -20z m38 -5 c-3 -9 -8 -14 -10 -11 -3 3 -2 9 2
15 9 16 15 13 8 -4z m531 -71 c9 -24 2 -26 -12 -4 -7 11 -8 20 -3 20 5 0 12
-7 15 -16z m1323 -26 c-3 -8 -6 -5 -6 6 -1 11 2 17 5 13 3 -3 4 -12 1 -19z m4
-45 c-12 -20 -14 -14 -5 12 4 9 9 14 11 11 3 -2 0 -13 -6 -23z m-2760 -24 c-5
-13 -10 -19 -10 -12 -1 15 10 45 15 40 3 -2 0 -15 -5 -28z m1406 -1 c-3 -7 -5
-2 -5 12 0 14 2 19 5 13 2 -7 2 -19 0 -25z m1360 -20 c-3 -8 -6 -5 -6 6 -1 11
2 17 5 13 3 -3 4 -12 1 -19z m-1801 -58 c0 -36 -3 -50 -13 -50 -9 0 -12 8 -8
25 3 14 7 36 10 50 8 36 10 31 11 -25z m1801 8 c-3 -8 -6 -5 -6 6 -1 11 2 17
5 13 3 -3 4 -12 1 -19z m10 -50 c-3 -8 -6 -5 -6 6 -1 11 2 17 5 13 3 -3 4 -12
1 -19z m-1789 -533 c-1 -198 -3 -315 -5 -260 -7 245 -7 642 -1 632 4 -7 7
-174 6 -372z m-21 -377 c-3 -8 -6 -5 -6 6 -1 11 2 17 5 13 3 -3 4 -12 1 -19z
m-1000 -90 c-3 -7 -5 -2 -5 12 0 14 2 19 5 13 2 -7 2 -19 0 -25z m990 -50 c-3
-7 -5 -2 -5 12 0 14 2 19 5 13 2 -7 2 -19 0 -25z m30 -40 c-3 -8 -6 -5 -6 6
-1 11 2 17 5 13 3 -3 4 -12 1 -19z m1400 -70 c-3 -7 -5 -2 -5 12 0 14 2 19 5
13 2 -7 2 -19 0 -25z m33 -17 c0 -32 -6 -24 -14 19 -4 25 -3 31 4 20 5 -8 10
-26 10 -39z m-2538 -67 c-9 -16 -10 -14 -9 8 1 15 6 23 11 18 4 -4 4 -16 -2
-26z m1146 8 c20 -30 11 -28 -19 4 -13 15 -18 25 -10 22 8 -2 21 -14 29 -26z
m1396 2 c3 -8 2 -12 -4 -9 -6 3 -10 10 -10 16 0 14 7 11 14 -7z m-2504 -4 c0
-5 -5 -10 -11 -10 -5 0 -7 5 -4 10 3 6 8 10 11 10 2 0 4 -4 4 -10z m-30 -40
c-13 -24 -50 -46 -50 -29 0 6 -7 8 -16 5 -9 -3 -12 -2 -9 5 4 5 15 7 25 4 13
-4 26 1 37 14 22 26 27 27 13 1z m1218 -18 c8 -6 2 -9 -18 -9 -16 0 -30 4 -30
9 0 10 31 10 48 0z m1463 -19 c13 -17 13 -17 -6 -3 -11 8 -22 16 -24 17 -2 2
0 3 6 3 6 0 17 -8 24 -17z m-2741 -13 c0 -5 -5 -10 -11 -10 -5 0 -7 5 -4 10 3
6 8 10 11 10 2 0 4 -4 4 -10z m2705 0 c3 -5 1 -10 -4 -10 -6 0 -11 5 -11 10 0
6 2 10 4 10 3 0 8 -4 11 -10z m-2885 -44 c0 -2 -7 -7 -16 -10 -8 -3 -12 -2 -9
4 6 10 25 14 25 6z m47 -12 c-3 -3 -12 -4 -19 -1 -8 3 -5 6 6 6 11 1 17 -2 13
-5z m1610 0 c-3 -3 -12 -4 -19 -1 -8 3 -5 6 6 6 11 1 17 -2 13 -5z"/>
<path d="M15380 4140 c0 -5 5 -10 10 -10 6 0 10 5 10 10 0 6 -4 10 -10 10 -5
0 -10 -4 -10 -10z"/>
<path d="M14569 3048 c-3 -11 -5 -48 -3 -48 11 0 23 40 14 45 -5 3 -10 5 -11
3z"/>
</g>
</svg>
